<svg width="300" height="400" viewBox="0 0 300 400" fill="none" xmlns="http://www.w3.org/2000/svg">
<g clip-path="url(#clip0_1591_37676)">
<path d="M115.469 205.981C115.469 205.981 112.697 210.706 114.715 215.236C116.758 219.791 120.259 220.156 120.259 220.156C120.259 220.156 123.323 213.215 115.469 205.981Z" fill="#66A400"/>
<path d="M138.717 211.997C138.717 211.997 134.705 207.321 136.431 201.33C137.817 196.58 144.043 193.195 144.043 193.195C144.043 193.195 146.718 207.102 138.717 211.997Z" fill="#66A400"/>
<path d="M158.316 224.516C158.316 224.516 157.124 218.743 159.434 214.676C161.209 211.534 168.675 209.123 168.675 209.123C168.675 209.123 168.164 215.236 165.66 218.816C163.155 222.372 158.316 224.516 158.316 224.516Z" fill="#66A400"/>
<path d="M103.383 247.288C103.383 247.288 102.751 253.182 103.383 256.519C104.405 262.047 111.141 263.85 111.141 263.85C111.141 263.85 113.767 253.767 103.383 247.288Z" fill="#66A400"/>
<path d="M126.849 286.5C126.849 286.5 120.161 286.305 116.611 290.056C113.061 293.831 113.815 299.701 113.815 299.701C113.815 299.701 119.651 297.923 122.374 294.489C125.122 291.03 126.849 286.5 126.849 286.5Z" fill="#66A400"/>
<path d="M167.362 262.51C167.362 262.51 164.419 269.111 164.055 271.838C163.69 274.591 164.784 279.608 164.784 279.608C164.784 279.608 169.94 274.591 169.964 271.668C169.988 268.745 167.362 262.51 167.362 262.51Z" fill="#66A400"/>
<path d="M126.946 261.926C126.946 261.926 124.855 266.505 126.241 270.182C127.651 273.86 131.153 277.05 131.153 277.05C131.153 277.05 132.709 271.863 131.712 268.989C130.715 266.091 126.946 261.926 126.946 261.926Z" fill="#66A400"/>
<path d="M184.021 261.926C184.021 261.926 183.316 258.881 184.021 254.083C184.726 249.285 193.748 246.947 193.748 246.947C193.748 246.947 193.189 253.621 190.66 256.397C188.155 259.174 184.021 261.926 184.021 261.926Z" fill="#66A400"/>
<path d="M184.822 279.9C184.822 279.9 186.67 276.344 190.05 276.027C193.455 275.711 198.148 272.788 198.148 272.788C198.148 272.788 196.446 281.264 191.485 280.874C186.524 280.46 184.822 279.9 184.822 279.9Z" fill="#66A400"/>
<path d="M139.714 312.171C139.714 312.171 133.245 306.91 129.111 309.102C124.953 311.294 125.05 316.75 126.144 321.134C126.144 321.134 128.892 317.748 130.74 315.337C132.589 312.926 139.714 312.171 139.714 312.171Z" fill="#66A400"/>
<path d="M180.494 320.768C180.494 320.768 178.768 314.436 181.151 311.051C185.479 304.937 193.139 305.108 193.723 304.085C193.723 304.085 192.191 309.882 188.762 314.85C185.334 319.819 180.494 320.768 180.494 320.768Z" fill="#66A400"/>
<path d="M176.214 343.906C176.214 343.906 174.366 348.046 172.858 351.675C171.351 355.304 174.05 366.02 174.05 366.02C174.05 366.02 181.248 357.106 181.248 352.576C181.248 348.071 176.214 343.906 176.214 343.906Z" fill="#66A400"/>
<path d="M101.17 311.464C101.17 311.464 101.17 317.48 103.966 321.182C106.763 324.884 113.645 325.493 113.645 325.493C113.645 325.493 115.76 314.582 101.17 311.464Z" fill="#66A400"/>
<path d="M117.219 339.108C117.219 339.108 120.818 341.227 125.633 341.3C130.472 341.373 133.853 348.387 133.853 348.387C133.853 348.387 128.284 351.31 122.253 348.826C116.222 346.341 117.219 339.108 117.219 339.108Z" fill="#66A400"/>
<path d="M106.398 317.163C109.146 319.989 111.772 323.033 113.62 326.491C114.715 328.635 115.42 330.997 116.709 333.019C119.262 337.159 122.618 340.788 126.411 343.784C121.84 338.791 117.584 333.433 115.298 327.003C112.599 321.547 107.979 317.188 102.969 313.827C104.153 314.915 105.296 316.027 106.398 317.163Z" fill="#773D12"/>
<path d="M191.461 436.408C189.029 435.336 187.619 433.071 185.82 431.269C181.856 427.615 176.384 426.032 171.107 425.691C167.217 422.647 162.912 420.211 159.386 416.753C163.618 418.068 168.116 417.946 172.396 417.021C176.725 416.412 181.272 416.728 185.333 418.506C180.98 415.438 175.314 414.707 170.11 415.34C169.551 415.364 168.7 415.462 168.141 415.462C163.861 415.535 159.629 414.366 155.812 412.515C154.426 410.64 153.307 408.545 152.383 406.402C156.201 408.204 160.505 409.909 164.809 409.349C159.508 408.423 155.009 404.989 150.778 401.847C148.127 387.94 147.3 373.522 150.292 359.615C151.41 354.403 152.966 349.167 154.158 343.808C154.644 342.055 154.547 340.058 156.006 338.767C158.195 336.209 161.624 335.649 164.833 335.966C167.46 336.161 170.378 334.967 172.323 337.33C177.892 343.784 176.287 353.502 175.533 361.369C177.527 353.283 179.789 341.032 172.104 335.26C187.157 330.754 172.907 321.986 190.051 307.568C184.385 311.635 179.862 317.748 179.205 324.884C178.913 326.662 178.962 328.537 178.111 330.145C176.53 332.142 174.026 333.287 171.569 333.871C166.293 335.211 159.921 332.483 155.52 336.672C157.66 324.129 156.663 311.123 152.042 299.238C154.912 294.878 159.557 292.102 163.739 289.082C166.122 287.45 168.53 285.769 170.816 283.967L173.661 283.042C180.591 280.85 188.932 281.239 194.598 276.027C188.422 280.119 180.689 279.364 173.831 281.459C178.719 277.513 181.734 271.96 183.072 265.895C184.92 260.074 187.376 254.327 191.145 249.48C176.165 268.087 188.324 271.57 162.888 287.864C165.417 281.556 166.244 274.736 166.973 268.039C165.636 275.248 164.663 282.969 160.797 289.325C157.417 291.712 153.891 294.172 151.434 297.582C148.176 288.692 142.996 280.192 142.413 270.572C141.78 263.314 142.315 258.053 146.838 252.037C153.599 244.122 154.134 240.274 156.444 230.556C158.414 224.248 161.38 218.135 165.66 213.069C158.56 219.986 155.179 229.557 153.064 239.031C151.094 246.728 143.677 251.526 142.024 259.319C141.78 250.186 141.221 241.004 139.811 231.944C137.792 221.349 137.817 210.146 141.707 199.99C138.254 207.783 137.257 216.551 137.938 225.003C139.105 234.306 140.419 243.61 140.54 253.011C136.893 242.88 132.783 245.096 127.846 239.08C123.907 230.288 121.062 220.935 116.903 212.192C120.77 221.13 123.372 230.58 127.287 239.445C133.123 246.533 136.552 242.88 140.613 255.544C140.783 260.586 140.783 267.722 141.197 272.715C141.756 277.513 143.434 282.116 145.233 286.573C142.194 282.871 137.5 281.361 132.929 280.752C131.299 275.735 129.281 270.231 127.652 265.213C129.111 270.231 130.424 275.345 131.421 280.484C123.348 279.218 115.979 276.904 113.523 268.258C110.824 261.804 107.638 255.496 104.039 249.48C107.201 255.715 110.143 262.096 112.599 268.623C115.007 278.024 123.202 280.655 131.81 281.946C132.005 282.165 132.345 282.238 132.637 282.092C132.637 282.092 132.645 282.092 132.661 282.092C126.241 284.868 121.062 290.007 116.903 295.512C122.424 290.641 127.919 285.331 134.801 282.506C142.024 283.261 147.057 289.301 149.076 295.95C152.431 304.328 154.669 313.218 154.596 322.303C150.413 315.093 130.667 303.184 127.409 316.36C131.129 302.526 154.377 318.211 154.353 327.563C153.672 337.987 150.024 347.583 146.96 357.52C137.89 343.979 126.995 350.043 119.165 342.006C126.29 350.92 138.4 345.27 146.279 360.005C142.486 373.351 143.239 387.526 145.841 400.995C138.741 421.283 120.284 401.628 120.162 421.989C122.01 403.601 137.719 422.354 147.276 405.622C148.881 408.691 145.89 418.287 144.139 421.307C141.294 425.74 135.628 427.055 131.129 429.32C128.308 431.122 124.904 430.733 121.743 431.439C114.836 432.584 106.958 433.972 104.039 441.303C108.903 434.532 116.976 434.873 124.345 433.436C117.317 439.647 118.265 450.363 120.162 458.644C118.387 446.125 119.287 435.141 132.929 430.903C130.351 435.92 131.445 442.107 134.558 446.637C134.971 447.319 135.677 448.244 136.163 448.853C140.759 454.138 139.64 462.005 137.136 468.021C140.686 462.638 142.34 455.161 139.008 449.267C134.582 443.373 131.567 437.041 135.482 429.953C139.738 428.346 144.723 426.738 147.203 422.525C149.076 419.456 150.17 415.925 150.729 412.369C152.821 415.632 155.52 418.579 158.632 420.893C159.508 424.936 159.63 429.369 157.076 432.803C151.021 440.84 150.972 447.635 157.83 455.137C153.137 448.317 152.431 441.863 158.17 435.482C159.8 440.791 165.077 443.714 169.502 446.369C176.871 449.584 175.071 459.716 174.39 466.267C176.457 459.667 178.743 449.559 171.74 445.151C167.168 442.058 160.845 439.281 159.727 433.363C161.842 430.465 162.45 426.69 162.061 423.231C172.177 428.882 177.381 431.975 179.375 444.25C179.278 438.648 178.111 432.681 174.147 428.468C177.795 429.247 181.54 430.514 184.409 432.876C188.276 437.187 193.236 439.793 198.975 437.43C196.373 437.869 193.698 437.504 191.461 436.408Z" fill="#773D12"/>
</g>
<defs>
<clipPath id="clip0_1591_37676">
<rect width="98" height="207" fill="white" transform="translate(101 193)"/>
</clipPath>
</defs>
</svg>
