<svg width="418" height="231" viewBox="0 0 418 231" fill="none" xmlns="http://www.w3.org/2000/svg">
<g clip-path="url(#clip0_3497_44670)">
<path d="M17.9086 109.951C28.0853 127.348 75.2669 191.141 95.8427 221.567L97.4814 195.749C12.5459 93.904 6.97214 71.8354 18.112 41.145C35.5272 -6.83381 96.1346 26.5209 114.281 47.4716L115.176 27.2615C114.977 20.6965 72.8477 4.88893 55.3486 5.0661C-27.5024 5.90494 4.77867 87.5038 17.9086 109.951Z" fill="#262626"/>
<path d="M288.552 231.417L185.897 236.356L190.477 26.8991L269.983 27.0941L280.741 131.591L350.933 51.3758C340.041 34.5252 351.029 14.7729 357.884 7.00313C354.012 3.92217 357.56 1.37279 359.818 0.483211C377.291 17.5405 413.151 52.8459 416.799 57.6092C420.447 62.3725 414.693 63.6309 411.36 63.6646C396.435 75.0963 377.108 71.8452 369.31 68.7906L285.766 193.243L288.552 231.417Z" fill="#268194"/>
<path d="M114.475 27.1686L92.346 231.803L192.603 236.888L195.079 27.1525L114.475 27.1686Z" fill="#256879"/>
</g>
<defs>
<clipPath id="clip0_3497_44670">
<rect width="418" height="231" fill="white"/>
</clipPath>
</defs>
</svg>
