<svg width="125" height="72" viewBox="0 0 125 72" fill="none" xmlns="http://www.w3.org/2000/svg">
<path d="M5.17483 35.4676C8.20828 40.7421 22.2721 60.0822 28.4053 69.3067L28.8938 61.4794C3.57632 30.6027 1.9149 23.9122 5.23546 14.6077C10.4265 0.0618391 28.4923 10.1741 33.9014 16.5257L34.1683 10.3986C34.1087 8.40826 21.551 3.61585 16.3349 3.66956C-8.36122 3.92387 1.26107 28.6624 5.17483 35.4676Z" fill="#262626"/>
<path d="M85.8476 70.2928L57.0001 71.6086L57.0001 8.60855L80.0001 8.60855L83.5193 40.0284L104.442 15.7095C101.195 10.6008 104.47 4.61251 106.514 2.25693C105.36 1.32287 106.417 0.549967 107.09 0.280273C112.299 5.45157 122.988 16.1552 124.075 17.5993C125.163 19.0434 123.448 19.4249 122.454 19.4351C118.005 22.9009 112.244 21.9152 109.92 20.9892L85.017 58.7196L85.8476 70.2928Z" fill="#268194"/>
<path d="M34.0001 8.60855L27.363 70.4099L57.0001 71.6086L57.0001 8.60855H34.0001Z" fill="#256879"/>
</svg>
