<svg width="17" height="16" viewBox="0 0 17 16" fill="none" xmlns="http://www.w3.org/2000/svg">
<path d="M8.73531 15.0295C8.60493 15.0621 8.47456 15.0865 8.34418 15.1028C2.86826 16.154 -0.969774 8.64907 0.98591 3.97988C2.96604 -0.787104 6.95075 1.19303 8.73531 1.29081C9.49314 1.26636 10.6665 0.875228 11.9133 0.80189C13.5756 0.728551 15.3602 1.26636 16.4847 3.97988C18.4893 8.74686 14.4068 16.5207 8.73531 15.0295Z" fill="#ED1C24"/>
<path d="M8.73438 15.0295C10.7634 14.8828 13.5014 12.4382 14.5036 9.21133C15.5059 5.98445 14.0636 1.80418 11.9124 0.80189C13.5747 0.728551 15.3593 1.26636 16.4838 3.97988C18.4884 8.74686 14.4059 16.5207 8.73438 15.0295Z" fill="#D81322"/>
<path d="M6.04564 1.80418C5.14113 0.973011 2.23205 2.58645 1.76758 4.68881C1.32755 6.76672 2.37873 10.4581 3.25879 10.6048C4.16329 10.7514 4.79889 8.55129 4.45664 6.18002C4.1144 3.78431 7.14571 2.78202 6.04564 1.80418Z" fill="#F74350"/>
</svg>
