<svg width="22" height="19" viewBox="0 0 22 19" fill="none" xmlns="http://www.w3.org/2000/svg">
<path d="M11.1018 17.9342C10.9388 17.9831 10.7758 18.0157 10.6128 18.032C10.6128 18.032 10.6128 18.0401 10.6128 18.0564C3.76794 19.3521 -1.04794 9.94032 1.37222 4.09771C3.86572 -1.89157 8.85272 0.601927 11.1018 0.724157C12.0552 0.675265 13.5219 0.186344 15.0865 0.113005C17.1644 0.0396672 19.4134 0.675265 20.8313 4.09771C23.3248 10.087 18.2156 19.8165 11.1018 17.9342Z" fill="#ED1C24"/>
<path d="M11.1016 17.9341C13.6684 17.7386 17.0908 14.6828 18.3376 10.6492C19.5843 6.59117 17.7753 1.35971 15.0863 0.11296C17.1642 0.0396215 19.4132 0.67522 20.8311 4.09767C23.3246 10.087 18.2154 19.8165 11.1016 17.9341Z" fill="#D81322"/>
<path d="M7.72979 1.35975C6.58082 0.333016 2.93836 2.36204 2.3761 4.97777C1.81384 7.59349 3.13393 12.1894 4.25845 12.3849C5.35852 12.5805 6.18968 9.84253 5.74966 6.83567C5.30963 3.85325 9.12321 2.58205 7.72979 1.35975Z" fill="#F74350"/>
</svg>
