<svg width="300" height="400" viewBox="0 0 300 400" fill="none" xmlns="http://www.w3.org/2000/svg">
<g clip-path="url(#clip0_1591_37518)">
<path d="M222.469 247.909C223.213 250.138 228.72 248.487 231.776 241.442C231.776 241.442 220.707 242.79 222.469 247.909Z" fill="#66A400"/>
<path d="M211.235 252.091C217.32 250.11 223.24 247.413 228.637 243.946C223.543 248.046 217.899 251.348 211.924 254.018L211.235 252.091Z" fill="#66300C"/>
<path d="M183.178 260.595C182.765 264.641 178.552 270.64 184.995 276.199C184.995 276.199 189.07 274.437 187.859 268.411C186.62 262.356 183.178 260.595 183.178 260.595Z" fill="#66A400"/>
<path d="M180.369 291.967C184.059 283.573 184.967 274.244 184.307 265.163C186.206 274.41 186.427 284.069 183.701 293.205L180.369 291.967Z" fill="#773D12"/>
<path d="M194.329 228.728C194.329 228.728 196.78 233.984 195.899 238.002C195.045 242.047 199.588 245.185 202.397 242.212C205.205 239.24 201.681 231.177 194.329 228.728Z" fill="#66A400"/>
<path d="M201.79 271.465C203.359 264.998 201.707 258.559 200.854 252.174C200.964 245.432 201.019 239.02 197.99 232.828C201.432 238.855 201.817 245.322 202.12 252.064C203.524 258.641 205.507 265.136 204.323 271.96L201.79 271.465Z" fill="#773D12"/>
<path d="M222.799 227.435C222.248 228.728 213.217 249.285 208.041 267.117C202.699 285.555 195.21 293.783 179.158 304.956C163.133 316.129 156.359 332.586 156.359 332.586L160.985 304.956C160.985 304.956 162.224 303.36 165.363 300.553C168.557 297.719 173.733 293.618 181.581 288.72C197.11 279.006 201.24 272.208 206.581 260.815C208.729 256.22 211.813 249.863 214.704 243.946C218.724 235.663 222.441 228.178 222.799 227.435Z" fill="#66300C"/>
<path d="M214.704 243.946C214.594 244.249 211.538 253.22 208.041 261.833C204.489 270.612 196.587 285.142 184.775 292.049C172.935 298.957 166.85 308.478 166.85 308.478L165.363 300.553C168.557 297.718 173.734 293.618 181.581 288.72C197.11 279.005 201.24 272.208 206.582 260.815C208.729 256.219 211.813 249.862 214.704 243.946Z" fill="#773D12"/>
<path d="M195.403 158.719C192.485 157.618 193.173 149.83 204.132 147.931C204.132 147.931 202.452 152.444 201.984 154.728C201.516 156.985 200.112 160.48 195.403 158.719Z" fill="#66A400"/>
<path d="M189.483 149.995C186.179 150.243 185.325 143.776 189.951 138.024C189.951 138.024 195.899 149.5 189.483 149.995Z" fill="#66A400"/>
<path d="M199.423 217.445C199.286 219.949 205.426 219.536 210.079 213.565C210.079 213.565 199.671 212.712 199.423 217.445Z" fill="#66A400"/>
<path d="M190.391 192.237C192.428 193.366 193.915 189.926 193.943 187.477C193.97 185.027 193.943 182.028 193.943 182.028C193.943 182.028 185.875 189.651 190.391 192.237Z" fill="#66A400"/>
<path d="M170.787 200.879C172.384 199.613 171.145 196.228 164.894 195.182C164.894 195.182 167.125 203.796 170.787 200.879Z" fill="#66A400"/>
<path d="M180.286 188.99C180.286 188.99 177.643 186.211 179.515 181.56C180.975 178.01 183.177 173.387 183.177 173.387C183.177 173.387 189.648 187.394 180.286 188.99Z" fill="#66A400"/>
<path d="M207.601 203.163C207.601 203.163 210.106 197.026 214.65 199.117C219.22 201.236 226.049 200.713 226.049 200.713C226.049 200.713 215.944 212.381 207.601 203.163Z" fill="#66A400"/>
<path d="M216.824 179.524C216.824 179.524 216.577 173.552 221.836 173.745C227.095 173.91 230.949 172.148 230.949 172.148C230.949 172.148 227.755 183.239 216.824 179.524Z" fill="#66A400"/>
<path d="M169.687 222.894C170.513 215.188 172.33 207.565 175.166 200.355C177.644 193.118 181.801 186.486 182.738 178.78C182.38 186.513 178.69 193.476 176.735 200.878C174.505 208.061 173.266 215.601 172.991 223.114L169.687 222.894Z" fill="#773D12"/>
<path d="M193.337 204.704C205.673 199.805 208.178 204.318 219.412 202.695C214.704 204.098 209.72 203.768 204.902 203.85C201.295 204.263 197.77 205.557 194.549 207.235L193.337 204.704Z" fill="#66300C"/>
<path d="M202.341 188.302C205.948 184.972 209.913 181.973 214.429 179.991C218.421 178.423 222.606 177.487 226.461 175.561C222.799 177.762 218.669 179 214.842 180.844C210.684 183.073 207.022 186.266 203.801 189.705L202.341 188.302Z" fill="#66300C"/>
<path d="M173.376 206.492C171.999 203.575 170.512 200.631 168.309 198.264C171.035 200.191 173.128 202.805 175.138 205.474L173.376 206.492Z" fill="#773D12"/>
<path d="M187.556 210.07C187.363 202.337 188.437 194.301 192.209 187.477C189.483 194.521 189.428 202.337 190.585 209.685L187.556 210.07Z" fill="#773D12"/>
<path d="M176.9 220.775C186.537 220.197 196.257 218.546 205.343 215.106C196.504 219.537 186.895 222.233 177.175 223.83L176.9 220.775Z" fill="#773D12"/>
<path d="M199.12 195.154C199.037 186.871 198.487 177.927 194.109 170.662C188.905 162.847 189.125 152.802 189.593 143.776C189.538 152.61 189.731 162.572 195.128 169.947C200.029 177.322 200.992 186.541 201.433 195.182L199.12 195.154Z" fill="#773D12"/>
<path d="M192.98 168.708C192.953 162.957 195.128 157.233 198.983 152.967C195.486 157.343 193.641 163.039 193.999 168.626L192.98 168.708Z" fill="#773D12"/>
<path d="M219.715 234.259C219.715 234.259 213.024 227.902 225.497 221.243C225.497 221.243 228.581 232.388 219.715 234.259Z" fill="#66A400"/>
<path d="M207.132 172.176C207.132 172.176 200.386 168.874 208.729 156.6C208.729 156.6 214.043 169.919 207.132 172.176Z" fill="#66A400"/>
<path d="M208.042 162.626C208.042 162.626 207.794 185.412 200.029 199.722C192.265 214.032 177.479 222.508 172.853 228.095C168.255 233.654 165.199 253.798 165.199 253.798L158.315 236.818C158.315 236.818 160.518 230.269 165.942 224.682C167.897 222.673 170.265 220.775 173.101 219.344C183.784 214.032 193.724 205.061 200.277 191.962C202.92 186.678 204.71 180.844 205.866 175.808C205.958 175.46 206.032 175.166 206.087 174.928C206.105 174.836 206.123 174.753 206.142 174.68C206.142 174.643 206.151 174.606 206.169 174.57C206.169 174.515 206.179 174.451 206.197 174.377C206.197 174.377 206.197 174.368 206.197 174.35C207.656 167.635 208.042 162.626 208.042 162.626Z" fill="#66300C"/>
<path d="M174.091 169.919C174.091 169.919 167.097 163.783 178.992 156.6C178.992 156.6 181.883 169.947 174.091 169.919Z" fill="#66A400"/>
<path d="M154.542 198.264C154.542 198.264 157.874 187.394 165.418 183.376C172.963 179.331 174.532 171.295 176.625 162.626C176.625 162.626 173.486 172.864 168.915 177.047C164.372 181.257 156.938 181.972 152.229 195.264L154.542 198.264Z" fill="#66300C"/>
<path d="M91.5449 204.621C91.5449 204.621 95.0142 216.482 99.3646 214.335C103.715 212.161 91.5449 204.621 91.5449 204.621Z" fill="#66A400"/>
<path d="M114.315 292.077C111.864 292.324 108.946 299.039 117.949 303.993C117.949 303.993 117.233 301.241 117.289 298.021C117.371 294.801 117.289 291.747 114.315 292.077Z" fill="#66A400"/>
<path d="M144.438 257.651C140.115 260.045 137.389 253.715 141.299 243.203C141.299 243.203 151.184 253.936 144.438 257.651Z" fill="#66A400"/>
<path d="M162.086 135.493C160.461 132.713 165.555 127.209 176.624 129.906C176.624 129.906 173.953 131.86 170.952 134.062C167.951 136.291 163.903 138.63 162.086 135.493Z" fill="#66A400"/>
<path d="M173.1 150.408C169.769 149.417 170.54 143.611 178.855 138.657C178.855 138.657 180.507 152.582 173.1 150.408Z" fill="#66A400"/>
<path d="M143.776 205.667C143.115 207.979 138.296 207.236 135.956 202.612C135.956 202.612 145.125 200.934 143.776 205.667Z" fill="#66A400"/>
<path d="M178.057 248.184C181.581 250.386 185.739 243.781 184.307 234.782C184.307 234.782 181.636 236.956 178.58 239.928C175.524 242.928 175.193 246.395 178.057 248.184Z" fill="#66A400"/>
<path d="M160.985 171.515C158.314 171.46 158.259 166.507 163.656 161.938C163.656 161.938 163.628 165.131 163.656 167.36C163.711 169.561 163.381 171.57 160.985 171.515Z" fill="#66A400"/>
<path d="M140.418 138.85C140.418 138.85 141.106 136.291 138.546 134.97C136.013 133.677 134.25 133.539 131.635 132.163C131.635 132.163 132.819 135.328 135.104 137.694C137.389 140.061 138.766 140.364 140.418 138.85Z" fill="#66A400"/>
<path d="M130.891 177.762C129.735 180.377 123.677 177.707 123.567 168.021C123.567 168.021 125.907 170.222 128.44 171.928C131.001 173.607 131.91 175.423 130.891 177.762Z" fill="#66A400"/>
<path d="M113.462 194.411C110.956 192.925 105.725 195.842 105.807 204.621C105.807 204.621 110.653 202.007 112.939 200.135C115.224 198.237 115.031 195.32 113.462 194.411Z" fill="#66A400"/>
<path d="M111.451 229.113C111.451 229.113 108.037 226.912 109.882 223.252C111.699 219.619 114.948 216.427 114.948 216.427C114.948 216.427 115.554 221.821 115.334 224.627C115.141 227.434 113.764 228.865 111.451 229.113Z" fill="#66A400"/>
<path d="M81.3294 237.011C83.009 235.525 81.5221 230.626 70.6187 228.48C70.6187 228.48 73.9503 233.819 75.327 235.828C76.6761 237.864 79.2093 238.91 81.3294 237.011Z" fill="#66A400"/>
<path d="M109.138 270.584C109.138 270.584 104.787 267.282 100.024 269.731C95.2606 272.181 93.0579 275.263 93.0579 275.263C93.0579 275.263 99.6385 275.373 103.658 274.272C107.651 273.171 109.138 270.584 109.138 270.584Z" fill="#66A400"/>
<path d="M224.864 265.053C224.864 265.053 221.091 258.173 234.748 256.054C234.748 256.054 234.225 266.374 224.864 265.053Z" fill="#66A400"/>
<path d="M155.698 133.044C151.458 132.989 152.807 124.32 158.314 119.091C158.314 119.091 161.921 133.099 155.698 133.044Z" fill="#66A400"/>
<path d="M144.575 133.044C144.575 133.044 137.113 129.301 141.133 117.027C141.133 117.027 149.394 122.586 144.575 133.044Z" fill="#66A400"/>
<path d="M124.695 149.005C124.695 149.005 116.021 149.252 118.472 137.694C118.472 137.694 127.861 140.942 124.695 149.005Z" fill="#66A400"/>
<path d="M91.2409 166.094C91.2409 166.094 82.3199 164.608 86.3674 148.482C86.3674 148.482 95.2609 155.857 91.2409 166.094Z" fill="#66A400"/>
<path d="M128.412 217.5C128.412 217.5 120.703 218.904 120.703 206.465C120.703 206.465 130.89 209.602 128.412 217.5Z" fill="#66A400"/>
<path d="M98.5376 229.773C98.5376 229.773 95.3436 233.764 86.7805 224.49C86.7805 224.49 96.3624 222.784 98.5376 229.773Z" fill="#66A400"/>
<path d="M74.0062 247.826C74.0062 247.826 65.8836 244.661 63.4331 255.531C63.4331 255.531 68.8573 255.339 71.5006 254.128C74.1163 252.89 75.9886 251.321 74.0062 247.826Z" fill="#66A400"/>
<path d="M173.348 409.694H138.05C138.05 409.694 138.49 408.456 139.179 406.227C141.905 397.448 148.761 373.506 149.339 351.849C150.055 324.715 153.331 301.186 155.892 279.858C158.425 258.503 154.791 228.728 151.514 211.088C149.091 197.989 147.852 172.065 145.759 149.004C145.016 140.914 144.19 133.181 143.144 126.494C143.144 126.494 149.146 147.904 152.037 169.479C152.395 172.258 152.725 175.038 152.973 177.762C155.148 201.786 166.437 246.918 166.795 273.446C167.153 299.975 165.694 317.229 169.356 343.51C170.044 348.601 170.623 354.215 171.118 359.939C171.118 359.939 171.118 359.985 171.118 360.077C172.577 377.469 173.101 395.962 173.266 404.658C173.321 407.85 173.348 409.694 173.348 409.694Z" fill="#773D12"/>
<path d="M159.636 297.031L156.359 313.184C156.359 313.184 148.347 300.828 136.232 296.232C124.089 291.609 121.364 278.455 117.068 259.604C112.745 240.781 105.669 234.149 93.7744 227.379C94.4352 227.655 115.168 237.039 118.032 250.385C118.472 252.449 118.885 254.486 119.298 256.495C121.584 267.695 123.759 277.547 129.927 281.675C135.599 285.445 149.2 288.555 155.919 292.958C157.819 294.196 159.168 295.545 159.636 297.031Z" fill="#773D12"/>
<path d="M152.229 193.888V201.649C152.229 201.649 141.821 189.293 129.431 189.293C117.068 189.293 94.2696 189.045 89.1758 159.021C89.341 159.765 93.2508 175.808 102.254 180.074C102.254 180.074 102.264 180.074 102.282 180.074C111.478 184.449 123.814 184.752 132.652 184.422C138.71 184.174 145.565 188.632 149.338 191.522C151.127 192.87 152.229 193.888 152.229 193.888Z" fill="#773D12"/>
<path d="M148.595 158.994C148.595 158.994 150.192 148.812 152.973 139.235C155.699 129.906 156.662 126.494 156.662 126.494C156.69 131.667 150.687 161.305 150.357 165.323L148.595 158.994Z" fill="#773D12"/>
<path d="M148.596 173.387C146.806 156.655 127.284 156.71 121.447 143.776C126.265 157.04 146.999 162.021 149.477 185.633L148.596 173.387Z" fill="#773D12"/>
<path d="M201.515 277.767C201.515 277.767 206.939 271.713 212.391 270.282C217.815 268.823 228.857 261.833 228.857 261.833C228.857 261.833 222.359 268.823 214.319 271.988C206.251 275.153 200.469 282.858 200.469 282.858L201.515 277.767Z" fill="#66300C"/>
<path d="M117.398 256.412L114.59 248.872C101.429 245.322 82.43 238.387 71.499 249.808C83.4488 241.524 97.1057 247.138 109.166 251.459C116.187 253.137 118.968 263.65 118.968 263.65L117.398 256.412Z" fill="#773D12"/>
<path d="M158.315 239.047C158.315 239.047 154.213 227.682 144.576 224.875C134.939 222.068 129.047 219.096 125.082 213.317C125.082 213.317 130.313 222.068 138.05 225.398C145.787 228.728 152.616 234.342 156.663 247.826L158.315 239.047Z" fill="#773D12"/>
<path d="M126.706 156.572C126.706 156.572 119.519 154.123 116.188 162.627C116.188 162.627 123.925 164.113 126.706 156.572Z" fill="#66A400"/>
<path d="M100.769 166.562C100.769 166.562 102.145 170.58 103.907 174.433C105.67 178.285 109.552 179.606 110.791 175.561C112.002 171.543 100.769 166.562 100.769 166.562Z" fill="#66A400"/>
<path d="M98.6477 187.036C98.6477 187.036 92.2598 183.183 88.7905 195.98C88.7905 195.98 93.5814 194.576 96.9131 193.008C100.217 191.411 100.217 188.797 98.6477 187.036Z" fill="#66A400"/>
<path d="M95.2339 253.798C92.0675 251.514 87.6896 255.421 88.791 262.907C88.791 262.907 99.8872 257.155 95.2339 253.798Z" fill="#66A400"/>
<path d="M102.697 290.729C102.697 290.729 93.9133 285.472 90.7744 299.837C90.7744 299.837 92.867 298.792 97.7681 297.911C102.697 297.031 105.147 294.416 102.697 290.729Z" fill="#66A400"/>
<path d="M209.94 295.93C209.94 295.93 213.024 284.895 225.855 298.021C225.855 298.021 221.973 298.186 217.898 299.425C213.795 300.636 210.794 299.59 209.94 295.93Z" fill="#66A400"/>
<path d="M200.469 304.736C195.789 305.699 196.257 311.918 204.159 318.055C204.159 318.055 206.417 303.525 200.469 304.736Z" fill="#66A400"/>
<path d="M163.656 142.373C163.656 142.373 154.349 147.298 158.314 152.004C162.251 156.738 163.656 142.373 163.656 142.373Z" fill="#66A400"/>
<path d="M124.062 234.865C124.062 234.865 127.559 234.865 130.202 233.819C132.818 232.746 138.352 233.461 138.049 237.479C137.719 241.524 128.082 242.735 124.062 234.865Z" fill="#66A400"/>
<path d="M133.011 261.833C133.011 261.833 132.626 266.209 131.056 269.539C129.487 272.869 131.937 275.841 135.462 274.602C138.959 273.392 133.011 261.833 133.011 261.833Z" fill="#66A400"/>
<path d="M219.467 274.079C219.467 274.079 224.836 269.539 228.856 272.346C232.876 275.153 237.805 277.079 237.805 277.079C237.805 277.079 224.616 284.069 219.467 274.079Z" fill="#66A400"/>
<path d="M130.203 139.235C130.203 139.235 128.881 143.281 130.203 146.583C131.745 150.463 134.25 149.995 134.25 149.995C137.527 147.106 130.203 139.235 130.203 139.235Z" fill="#66A400"/>
<path d="M133.149 157.866C128.275 155.389 122.658 158.196 118.473 160.976C122.631 157.316 128.523 153.793 134.167 156.05L133.149 157.866Z" fill="#773D12"/>
<path d="M135.268 157.893C136.369 151.922 131.193 147.739 130.89 141.987C132.157 148.234 137.719 151.179 137.306 158.086L135.268 157.893Z" fill="#773D12"/>
<path d="M148.623 167.387C150.66 158.801 157.076 152.665 161.784 145.537C158.039 152.94 152.312 159.489 151.156 167.938L148.623 167.387Z" fill="#773D12"/>
<path d="M114.151 185.633C111.425 180.239 108.534 174.735 104.293 170.359C109.057 174.295 112.609 179.496 115.968 184.642L114.151 185.633Z" fill="#773D12"/>
<path d="M109.964 186.403C103.548 185.082 96.252 187.036 92.2595 192.485C95.7839 186.183 103.438 183.294 110.404 183.872L109.964 186.403Z" fill="#773D12"/>
<path d="M104.871 249.34C99.6392 250.275 93.4716 254.073 90.6907 259.302C93.1963 253.44 98.7306 248.899 104.871 247.303V249.34Z" fill="#773D12"/>
<path d="M156.195 248.101C150.468 238.167 139.124 237.699 128.936 236.378C140.197 236.653 151.541 236.295 158.81 246.45L156.195 248.101Z" fill="#773D12"/>
<path d="M205.343 274.437C211.043 273.254 216.99 272.648 222.662 274.217C225.994 275.125 229.133 276.611 232.602 276.831C229.16 276.886 225.856 275.648 222.497 275.015C216.963 273.942 211.236 274.905 205.894 276.446L205.343 274.437Z" fill="#66300C"/>
<path d="M191.741 288.913C197.964 295.325 201.268 304.103 202.645 312.827C200.359 304.736 196.339 296.728 189.786 291.279L191.741 288.913Z" fill="#66300C"/>
<path d="M196.421 296.233C204.544 295.049 212.831 295.104 220.926 296.343C212.886 295.957 204.764 296.755 196.999 298.764L196.421 296.233Z" fill="#66300C"/>
<path d="M135.352 288.637C134.085 284.069 132.956 279.446 133.094 274.712C133.177 272.924 133.452 268.218 133.562 266.374C133.672 268.245 133.947 272.924 134.058 274.712C134.443 279.198 136.068 283.574 137.775 287.756L135.352 288.637Z" fill="#773D12"/>
<path d="M127.173 287.509C115.278 282.28 103.466 290.096 93.7744 296.508C103.549 288.472 115.141 279.693 128.495 284.152L127.173 287.509Z" fill="#773D12"/>
<path d="M137.03 188.192C135.708 185.165 134.029 182.138 131.798 179.689C129.926 177.762 128.026 175.753 126.705 173.387C128.384 175.506 130.532 177.129 132.707 178.698C135.543 180.927 137.773 183.761 139.756 186.761L137.03 188.192Z" fill="#773D12"/>
<path d="M160.792 184.146C159.828 178.065 159.801 171.515 162.389 165.846C160.489 171.598 161.205 177.9 162.775 183.651L160.792 184.146Z" fill="#66300C"/>
<path d="M153.744 214.39C149.944 210.042 145.291 206.245 139.784 204.346C145.787 205.336 151.266 208.446 155.919 212.244L153.744 214.39Z" fill="#773D12"/>
<path d="M121.226 274.382C114.976 270.942 107.376 270.034 100.493 271.988C107.431 269.291 115.416 269.594 122.19 272.566L121.226 274.382Z" fill="#773D12"/>
<path d="M87.1116 244.854C83.9176 240.589 80.6411 236.268 76.511 232.911C81.1092 235.773 84.9364 239.68 88.681 243.561L87.1116 244.854Z" fill="#773D12"/>
<path d="M110.817 241.965C110.432 235.47 110.542 228.783 112.58 222.563C111.203 228.838 111.809 235.415 112.855 241.689L110.817 241.965Z" fill="#773D12"/>
<path d="M123.098 188.798C117.867 191.494 112.801 194.962 109.194 199.723C112.03 194.246 116.655 189.843 121.529 186.156L123.098 188.798Z" fill="#773D12"/>
<path d="M146.007 146.5C145.374 145.51 144.686 144.519 143.97 143.556C143.236 142.583 142.474 141.648 141.685 140.749C140.886 139.841 140.06 138.96 139.179 138.135C138.298 137.309 137.334 136.538 136.315 135.878C137.417 136.401 138.491 137.034 139.509 137.722C140.501 138.437 141.464 139.208 142.4 140.006C143.337 140.831 144.245 141.684 145.126 142.565C146.007 143.446 146.833 144.326 147.659 145.317L146.007 146.5Z" fill="#773D12"/>
<path d="M162.747 265.603C169.933 257.843 176.982 249.725 182.02 240.368C178.469 250.578 172.659 259.852 166.711 268.823L162.747 265.603Z" fill="#773D12"/>
<path d="M154.598 155.994C163.987 158.361 173.652 152.665 177.039 143.776C173.927 153.132 164.07 159.297 154.295 157.233L154.598 155.994Z" fill="#773D12"/>
<path d="M152.615 141.41C157.488 137.502 162.885 134.144 168.86 132.163C163.215 134.64 158.204 138.465 153.826 142.73L152.615 141.41Z" fill="#773D12"/>
<path d="M156.331 281.482C155.34 276.721 153.468 272.016 150.439 268.191C145.979 263.677 143.445 257.568 142.399 251.404C144.051 256.715 146.612 261.916 150.852 265.549C155.395 269.456 158.396 274.878 160.296 280.519L156.331 281.482Z" fill="#773D12"/>
<path d="M116.352 285.115C114.81 289.27 114.094 293.976 115.388 298.324C113.378 294.031 113.461 289.05 114.425 284.482L116.352 285.115Z" fill="#773D12"/>
<path d="M103.742 234.259C103.521 225.316 101.594 215.546 95.2336 208.832C101.952 215.381 104.237 225.178 104.843 234.259H103.742Z" fill="#773D12"/>
<path d="M173.265 404.658C171.034 402.512 166.656 376.561 162.499 339.851C159.498 313.487 162.747 293.838 162.389 271.438C162.031 249.01 158.837 228.453 155.698 211.996C152.559 195.567 152.036 169.479 152.036 169.479C152.394 172.258 152.724 175.038 152.972 177.762C155.147 201.787 166.436 246.918 166.794 273.447C167.152 299.975 165.693 317.23 169.355 343.511C170.043 348.602 170.621 354.216 171.117 359.94C171.117 359.94 171.117 359.985 171.117 360.077C172.576 377.469 173.099 395.962 173.265 404.658Z" fill="#66300C"/>
<path d="M159.636 272.346C159.388 288.582 156.221 309.579 154.762 330.851C153.275 352.151 152.449 385.56 139.178 406.227C141.904 397.448 148.76 373.506 149.338 351.849C150.054 324.715 153.33 301.186 155.891 279.858C158.424 258.503 154.79 228.728 151.513 211.088C149.09 197.989 147.851 172.066 145.758 149.004C145.841 149.61 148.457 169.066 149.888 182.275C151.348 195.705 153.055 210.042 155.698 223.004C158.341 235.938 159.883 256.109 159.636 272.346Z" fill="#89491D"/>
<path d="M158.314 324.137C158.314 324.137 156.854 336.576 155.698 351.932C154.542 367.287 153.578 380.359 149.971 388.752C146.336 397.173 145.703 403.915 145.07 409.805C145.07 409.805 148.732 400.145 153.633 390.018C158.534 379.919 158.892 366.021 158.314 352.785C157.708 339.52 158.314 324.137 158.314 324.137Z" fill="#89491D"/>
<path d="M155.92 292.958L153.276 301.461C153.276 301.461 143.171 292.16 132.35 287.068C121.667 282.032 119.354 257.128 119.299 256.495C121.585 267.695 123.76 277.547 129.927 281.675C135.599 285.445 149.201 288.555 155.92 292.958Z" fill="#89491D"/>
<path d="M150.358 196.998C150.358 196.998 136.894 184.917 123.567 185.633C110.434 186.348 102.504 180.266 102.283 180.074C111.48 184.449 123.815 184.752 132.653 184.422C138.711 184.174 145.567 188.632 149.339 191.522L150.358 196.998Z" fill="#89491D"/>
<path d="M205.865 175.808C205.067 179.386 202.947 188.494 201.377 192.485C199.395 197.521 191.603 211.115 180.865 217.555C170.154 223.994 162.389 229.113 162.389 229.113L165.941 224.682C167.896 222.673 170.264 220.775 173.1 219.344C183.783 214.032 193.723 205.061 200.276 191.962C202.919 186.678 204.709 180.844 205.865 175.808Z" fill="#773D12"/>
<path d="M160.902 342.52C160.902 342.52 161.067 363.159 160.902 372.406C160.737 381.487 160.957 404.796 164.316 407.19C167.676 409.612 170.484 407.768 167.813 396.265C165.142 384.762 165.308 377.607 164.316 367.92C163.325 358.233 160.902 342.52 160.902 342.52Z" fill="#66300C"/>
<path d="M158.536 383.771C158.536 383.771 155.755 392.907 154.488 397.255C153.221 401.603 149.504 407.685 152.698 408.731C155.892 409.749 158.508 406.364 158.536 397.943C158.536 389.55 158.536 383.771 158.536 383.771Z" fill="#89491D"/>
</g>
<defs>
<clipPath id="clip0_1591_37518">
<rect width="182" height="283" fill="white" transform="translate(59 117)"/>
</clipPath>
</defs>
</svg>
