<svg width="21" height="19" viewBox="0 0 21 19" fill="none" xmlns="http://www.w3.org/2000/svg">
<path d="M10.4338 18.6734C10.2708 18.7223 10.1078 18.7631 9.94487 18.7957C3.09997 20.0913 -1.71591 10.6796 0.704254 4.83697C3.19775 -1.15231 8.18475 1.34119 10.4338 1.46342C11.3872 1.41452 12.8539 0.925603 14.4185 0.852265C16.4964 0.778927 18.7454 1.41452 20.1633 4.83697C22.6568 10.8263 17.5476 20.5558 10.4338 18.6734Z" fill="#ED1C24"/>
<path d="M10.4336 18.6734C13.0004 18.4778 16.4229 15.4465 17.6696 11.3885C18.9164 7.33042 17.1074 2.09897 14.4183 0.852217C16.4962 0.778879 18.7453 1.41447 20.1631 4.83692C22.6566 10.8262 17.5474 20.5557 10.4336 18.6734Z" fill="#D81322"/>
<path d="M7.06182 2.09901C5.91285 1.07227 2.27039 3.10129 1.70813 5.71702C1.14587 8.33275 2.46596 12.9531 3.59048 13.1242C4.715 13.3197 5.52172 10.5818 5.08169 7.57492C4.64166 4.5925 8.45524 3.32131 7.06182 2.09901Z" fill="#F74350"/>
</svg>
