<svg width="14" height="15" viewBox="0 0 14 15" fill="none" xmlns="http://www.w3.org/2000/svg">
<path d="M9.97198 4.80874C9.97198 4.80874 13.7581 4.63885 13.7338 7.30853C13.7338 9.97821 9.29242 9.54135 9.29242 9.54135C9.29242 9.54135 10.0691 12.211 8.75849 13.6672C7.42365 15.1234 5.16656 12.7207 5.19083 10.7791C5.19083 10.7791 2.44834 12.9634 0.700912 11.2888C-1.04652 9.63843 3.07935 6.89594 3.07935 6.89594C3.07935 6.89594 -0.197069 5.75526 0.870803 3.15839C1.93868 0.561519 5.74903 3.59525 5.74903 3.59525C5.74903 3.59525 6.2587 -0.433542 9.19535 0.270283C12.132 0.974108 9.97198 4.80874 9.97198 4.80874Z" fill="#D8EEEC"/>
<path d="M8.44442 5.82795C8.44442 5.82795 10.2889 5.75514 10.2889 7.06571C10.2889 8.37628 8.10465 8.15786 8.10465 8.15786C8.10465 8.15786 8.49296 9.49269 7.83767 10.1965C7.18238 10.9246 6.06598 9.7354 6.06598 8.78887C6.06598 8.78887 4.70687 9.85674 3.85743 9.03157C3.00799 8.23067 5.02238 6.87156 5.02238 6.87156C5.02238 6.87156 3.42057 6.28908 3.93024 5.02705C4.46417 3.74075 6.35722 5.22121 6.35722 5.22121C6.35722 5.22121 6.59992 3.25535 8.0561 3.59513C9.51229 3.93491 8.44442 5.82795 8.44442 5.82795Z" fill="#F3DEDA"/>
<path d="M6.72186 7.69683C6.23646 7.57548 5.94522 7.11435 6.06657 6.62896C6.18792 6.14356 6.64905 5.85232 7.13445 5.97367C7.61984 6.07075 7.91108 6.55615 7.78973 7.04154C7.69266 7.52694 7.20725 7.81818 6.72186 7.69683Z" fill="#F2FCA7"/>
</svg>
