<svg width="16" height="14" viewBox="0 0 16 14" fill="none" xmlns="http://www.w3.org/2000/svg">
<path d="M7.77011 13.7026C7.65603 13.7352 7.54196 13.7596 7.42788 13.7759C2.31865 14.7538 -1.25048 7.76217 0.558525 3.43522C2.41643 -1.01396 6.10778 0.84394 7.77011 0.941724C8.50349 0.892832 9.57913 0.526143 10.7281 0.47725C12.2682 0.403912 13.955 0.892831 15.0062 3.43522C16.8396 7.8844 13.0505 15.096 7.77011 13.7026Z" fill="#ED1C24"/>
<path d="M7.76953 13.7026C9.67632 13.5559 12.2187 11.3069 13.1477 8.29999C14.0766 5.26867 12.7321 1.38175 10.7275 0.47725C12.2676 0.403912 13.9544 0.892831 15.0056 3.43522C16.839 7.8844 13.0499 15.096 7.76953 13.7026Z" fill="#D81322"/>
<path d="M5.27495 1.38176C4.41934 0.62393 1.70582 2.13959 1.29023 4.07082C0.87465 6.02651 1.8525 9.44896 2.68366 9.59563C3.51483 9.71786 4.12599 7.68884 3.80819 5.46425C3.46595 3.23966 6.30169 2.31071 5.27495 1.38176Z" fill="#F74350"/>
</svg>
