<svg width="15" height="13" viewBox="0 0 15 13" fill="none" xmlns="http://www.w3.org/2000/svg">
<path d="M7.32136 12.7299C7.22358 12.7462 7.11764 12.7707 7.00356 12.8033C2.4077 13.6833 -0.819177 7.37626 0.818709 3.44044C2.48104 -0.568712 5.83015 1.11806 7.32136 1.1914C7.98141 1.16695 8.95925 0.824715 10.0104 0.775822C11.3794 0.72693 12.8951 1.16696 13.8485 3.44044C15.5108 7.44959 12.0883 13.9767 7.32136 12.7299Z" fill="#ED1C24"/>
<path d="M7.32031 12.7299C9.03154 12.5833 11.3295 10.5542 12.1851 7.84073C13.0162 5.12722 11.7939 1.60699 10.0094 0.775822C11.3784 0.72693 12.894 1.16696 13.8474 3.44044C15.5097 7.44959 12.0873 13.9767 7.32031 12.7299Z" fill="#D81322"/>
<path d="M5.07398 1.60699C4.31615 0.922499 1.87154 2.29148 1.48041 4.02715C1.11371 5.78726 1.99377 8.86746 2.7516 9.01414C3.48498 9.13637 4.04724 7.30292 3.75389 5.29834C3.46054 3.29377 6.00293 2.43815 5.07398 1.60699Z" fill="#F74350"/>
</svg>
