<svg width="13" height="12" viewBox="0 0 13 12" fill="none" xmlns="http://www.w3.org/2000/svg">
<path d="M8.58631 3.7641C8.58631 3.7641 11.6443 2.91465 12.154 5.07467C12.6636 7.25895 8.95035 7.76862 8.95035 7.76862C8.95035 7.76862 10.1153 9.78301 9.3144 11.2392C8.5135 12.6954 6.20787 11.1664 5.84382 9.56458C5.84382 9.56458 4.02358 11.8945 2.30042 10.8751C0.552998 9.85582 3.3683 6.82209 3.3683 6.82209C3.3683 6.82209 0.480189 6.53085 0.844236 4.20095C1.20828 1.89532 4.89729 3.59421 4.89729 3.59421C4.89729 3.59421 4.53324 0.220703 7.08157 0.220703C9.60563 0.220703 8.58631 3.7641 8.58631 3.7641Z" fill="#D8EEEC"/>
<path d="M7.54005 4.90489C7.54005 4.90489 9.04477 4.49231 9.28747 5.56018C9.53017 6.62805 7.70993 6.87075 7.70993 6.87075C7.70993 6.87075 8.29241 7.89008 7.87982 8.59391C7.4915 9.322 6.35082 8.56964 6.18093 7.76874C6.18093 7.76874 5.28295 8.90941 4.40923 8.42402C3.55979 7.91435 4.96744 6.40962 4.96744 6.40962C4.96744 6.40962 3.53552 6.264 3.70541 5.12332C3.8753 3.98264 5.71981 4.83209 5.71981 4.83209C5.71981 4.83209 5.52565 3.15747 6.78768 3.15747C8.02544 3.15747 7.54005 4.90489 7.54005 4.90489Z" fill="#F3DEDA"/>
<path d="M6.50237 6.77353C6.08978 6.77353 5.75 6.43375 5.75 6.02116C5.75 5.60858 6.08978 5.2688 6.50237 5.2688C6.91495 5.2688 7.25473 5.60858 7.25473 6.02116C7.25473 6.43375 6.91495 6.77353 6.50237 6.77353Z" fill="#F2FCA7"/>
</svg>
