<svg width="300" height="400" viewBox="0 0 300 400" fill="none" xmlns="http://www.w3.org/2000/svg">
<g clip-path="url(#clip0_1608_38048)">
<path d="M295.47 217.805C294.717 235.473 275.253 239.211 275.253 239.211C275.447 239.478 284.136 252.414 274.136 266.32C264.04 280.397 243.823 271.368 243.823 271.368C243.823 271.368 244.94 286.95 232.222 288.357C219.505 289.741 213.874 276.829 213.874 276.829C213.874 276.829 207.152 289.741 201.545 276.829C201.545 276.829 186.935 295.978 174.97 274.329C174.97 274.329 165.602 294.983 149.147 286.925C149.147 286.925 134.172 308.428 116.577 297.774C98.9812 287.119 100.85 272.946 100.85 272.946C100.85 272.946 97.5007 280.639 92.6225 274.329C92.6225 274.329 90.0014 298.332 65.2947 283.382C65.2947 283.382 45.1022 289.619 43.5975 269.475C43.5975 269.475 18.1627 273.65 28.2589 244.089C28.2589 244.089 13.6485 231.784 27.5066 223.532C27.5066 223.532 6.53746 221.591 15.5416 199.724C15.5416 199.724 -4.31115 183.754 22.6526 167.129C22.6526 167.129 7.28983 146.039 29.0113 137.423C29.0113 137.423 28.2589 120.58 48.8398 124.317C48.8398 124.317 49.9562 114.974 58.1836 114.974C58.1836 114.974 51.0968 92.1357 75.4152 88.0098C75.4152 88.0098 78.0363 73.4237 92.6225 78.666C92.6225 78.666 106.699 55.8281 118.373 79.7824C118.373 79.7824 130.047 67.429 138.662 80.8988C138.662 80.8988 148.759 62.9391 163.369 65.1962C177.955 67.429 182.445 85.0247 182.445 85.0247C182.445 85.0247 196.303 74.1761 199.288 90.631C199.288 90.631 225.864 76.7972 227.733 108.615C227.733 108.615 245.692 103.373 241.202 128.443C241.202 128.443 255.06 123.468 263.288 131.574C271.515 139.656 267.025 155.795 267.025 155.795C267.025 155.795 280.883 154.63 277.122 170.721C277.122 170.721 296.974 177.468 282.752 197.297C282.752 197.297 296.222 200.136 295.47 217.805Z" fill="#66A400"/>
<path d="M274.136 266.32C264.039 280.397 243.823 271.368 243.823 271.368C243.823 271.368 244.939 286.95 232.222 288.357C219.504 289.741 213.874 276.829 213.874 276.829C213.874 276.829 207.151 289.741 201.545 276.829C201.545 276.829 186.934 295.978 174.969 274.329C174.969 274.329 165.601 294.983 149.146 286.925C149.146 286.925 134.172 308.428 116.576 297.774C98.9805 287.12 100.849 272.946 100.849 272.946C100.849 272.946 97.5 280.639 92.6218 274.329C92.6218 274.329 90.0006 298.332 65.294 283.382C65.294 283.382 45.1015 289.619 43.5967 269.475C43.5967 269.475 18.162 273.65 28.2582 244.089C28.2582 244.089 29.4232 273.698 59.3964 258.869C59.3964 258.869 60.1245 274.621 76.4581 263.02C76.4581 263.02 91.9179 269.912 94.6604 245.74C94.6604 245.74 117.692 283.6 140.53 276.829C163.368 270.082 171.499 251.006 171.499 251.006C171.499 251.006 178.852 276.174 205.379 249.453C205.379 249.453 209.141 269.378 229.916 254.088C229.916 254.088 249.963 267.971 264.088 261.199C278.698 254.161 275.325 239.526 275.252 239.211C275.446 239.478 284.135 252.414 274.136 266.32Z" fill="#609100"/>
<path d="M174.97 400.532H118.373C118.373 400.532 118.713 399.877 119.32 398.712C122.717 391.941 134.221 367.525 135.143 345.585C136.236 319.811 136.745 297.094 140.531 276.829C144.317 256.564 148.759 232.173 148.759 212.271C148.759 203.923 147.812 185.065 146.817 167.688C145.749 148.757 144.609 131.574 144.609 131.574C144.609 131.574 149.511 151.475 153.37 171.061C154.729 178.027 155.991 184.944 156.841 190.914C160.069 213.703 162.811 244.866 163.369 270.082C163.903 295.274 163.563 311.195 168.976 336.144C172.859 354.128 174.266 379.563 174.728 392.426C174.922 397.426 174.97 400.532 174.97 400.532Z" fill="#773D12"/>
<path d="M149.146 276.829L142.399 307.118C136.404 282.969 114.707 264.282 104.975 247.074C95.2427 229.867 95.631 197.297 95.631 197.297C95.898 203.17 96.9659 210.378 99.0045 217.805C102.427 230.28 108.591 243.482 118.372 252.462C128.687 261.952 138.783 269.524 144.462 273.577C147.374 275.664 149.146 276.829 149.146 276.829Z" fill="#773D12"/>
<path d="M204.868 203.631C203.751 216.106 200.45 232.173 191.058 239.211C177.588 249.331 164.361 268.408 159.993 275.009C159.022 276.465 158.488 277.339 158.488 277.339L153.998 256.807C153.998 256.807 167.856 242.123 182.831 235.619C197.781 229.115 205.28 186.885 205.28 186.885C205.28 186.885 205.693 194.239 204.868 203.631Z" fill="#773D12"/>
<path d="M221.738 242.584C221.641 242.802 218.559 250.108 211.399 260.034C207.079 266.053 201.23 273.067 193.682 280.057C177.858 294.667 167.325 313.428 163.466 320.903C162.423 322.966 161.865 324.179 161.865 324.179L159.607 302.846C159.607 302.846 171.208 283.624 188.44 274.329C205.526 265.106 221.495 242.924 221.738 242.584Z" fill="#773D12"/>
<path d="M118.372 260.083C118.372 260.083 99.7331 273.286 84.3945 251.006C84.3945 251.006 92.622 278.771 125.556 269.475L118.372 260.083Z" fill="#773D12"/>
<path d="M101.99 232.537C101.99 232.537 90.3886 229.163 82.1369 223.532C73.9094 217.878 70.1719 205.913 70.1719 205.913C70.1719 205.913 73.5454 226.105 84.394 232.1C95.2426 238.094 108.712 247.463 108.712 247.463L101.99 232.537Z" fill="#773D12"/>
<path d="M211.4 260.035C207.08 266.053 201.231 273.067 193.683 280.057C177.859 294.668 167.326 313.428 163.467 320.903L164.51 305.492C164.51 305.492 173.854 292.508 186.596 281.805C199.338 271.102 210.866 258.87 210.866 258.87C210.866 258.87 211.06 259.306 211.4 260.035Z" fill="#66300C"/>
<path d="M179.679 154.145C179.606 154.363 175.14 165.819 173.199 174.896C173.199 174.896 173.199 174.904 173.199 174.92C172.737 177.129 172.422 179.191 172.349 180.915C171.961 189.822 157.375 211.519 157.375 211.519L155.506 197.297C155.506 197.297 166.719 188.851 169.34 174.92C171.961 161.11 179.582 154.242 179.679 154.145Z" fill="#773D12"/>
<path d="M151.768 235.619L149.147 256.807C149.147 256.807 139.415 239.211 132.668 226.688C125.945 214.14 125.557 184.41 125.557 184.41C125.557 184.41 126.188 189.603 127.547 196.205C129.197 204.165 131.94 214.189 136.041 219.674C141.065 226.396 146.429 231.299 149.414 233.774C150.87 234.988 151.768 235.619 151.768 235.619Z" fill="#773D12"/>
<path d="M198.535 220.596C198.535 220.596 212.005 216.397 221.737 205.913C221.737 205.913 207.296 225.814 196.666 229.697L198.535 220.596Z" fill="#773D12"/>
<path d="M177.203 197.297C177.203 197.297 173.102 213.606 177.203 219.674C181.329 225.741 187.324 235.619 187.324 235.619L174.97 242.584C174.97 242.584 169.34 225.401 169.728 217.344C170.092 209.286 177.203 197.297 177.203 197.297Z" fill="#773D12"/>
<path d="M50.1239 226.687C50.1239 226.687 61.2638 234.818 70.1708 225.328C70.1708 225.328 88.3732 231.493 80.8981 211.519C80.8981 211.519 90.873 210.354 91.5525 198.704C91.5525 198.704 88.81 214.237 108.711 214.31L107.182 187.904C107.182 187.904 70.9232 182.249 67.2584 183.584C63.5937 184.919 31.1692 197.054 30.0042 201.884C28.8393 206.689 43.3041 234.308 43.6439 235.133C43.9837 235.983 54.6624 255.253 56.1671 256.806C57.6718 258.335 76.4567 263.019 76.4567 263.019C76.4567 263.019 104.974 273.213 94.659 245.739L74.5879 239.963L50.1239 226.687Z" fill="#66A400"/>
<path d="M114.83 184.409C114.83 184.409 118.665 195.719 129.635 192.734C140.604 189.724 137.789 162.3 137.789 162.3C137.789 162.3 153.759 168.949 154.001 148.806C154.001 148.806 156.914 155.31 163.564 152.98C163.564 152.98 163.078 176.425 184.703 168.1L186.353 139.34L135.12 125.531C135.12 125.531 112.015 139.826 110.68 144.485C109.345 149.145 114.83 184.409 114.83 184.409Z" fill="#66A400"/>
<path d="M169.703 200.039C169.703 200.039 171.208 209.359 183.197 204.699L196.012 190.72C196.012 190.72 200.817 204.869 217.126 192.224C217.126 192.224 201.982 217.683 229.941 222.343L202.516 252.219C202.516 252.219 206.982 277.314 229.917 254.088L244.236 228.653C244.236 228.653 238.751 202.879 234.916 197.297C231.106 191.739 211.253 182.978 209.214 182.856C207.151 182.759 187.323 183.366 187.323 183.366L169.703 200.039Z" fill="#66A400"/>
<path d="M282.752 197.297C280.01 178.561 266.928 191.254 266.928 191.254C269.525 169.823 250.595 179.653 250.595 179.653C261.735 128.783 221.738 140.287 221.738 140.287C226.325 113.93 203.803 122.473 203.803 122.473C201.57 91.6746 178.513 106.139 178.513 106.139C155.821 70.123 135.483 107.62 135.483 107.62C113.956 88.6894 110.461 117.643 110.461 117.643C97.6949 108.008 96.7726 125.531 96.7726 125.531C96.7726 125.531 84.2494 115.046 70.1729 122.861C56.0964 130.652 63.1104 162.858 63.1104 162.858C63.1104 162.858 47.5049 150.335 33.7682 160.043C20.0315 169.751 33.7682 197.297 33.7682 197.297C16.6822 206.786 27.5066 223.533 27.5066 223.533C27.5066 223.533 6.53746 221.591 15.5416 199.724C15.5416 199.724 -4.31115 183.754 22.6526 167.129C22.6526 167.129 7.28983 146.039 29.0113 137.423C29.0113 137.423 28.2589 120.58 48.8398 124.317C48.8398 124.317 49.9562 114.974 58.1836 114.974C58.1836 114.974 51.0968 92.1357 75.4152 88.0099C75.4152 88.0099 78.0363 73.4237 92.6225 78.666C92.6225 78.666 106.699 55.8281 118.373 79.7824C118.373 79.7824 130.047 67.429 138.662 80.8988C138.662 80.8988 148.759 62.9391 163.369 65.1962C177.955 67.429 182.445 85.0247 182.445 85.0247C182.445 85.0247 196.303 74.1761 199.288 90.631C199.288 90.631 225.864 76.7972 227.733 108.615C227.733 108.615 245.692 103.373 241.202 128.443C241.202 128.443 255.06 123.468 263.288 131.574C271.515 139.656 267.025 155.795 267.025 155.795C267.025 155.795 280.883 154.631 277.122 170.721C277.122 170.721 296.974 177.468 282.752 197.297Z" fill="#7AB812"/>
<path d="M49.9062 177.808C49.9062 177.808 51.775 163.416 60.8762 159.387C69.9531 155.334 81.4813 163.877 81.4813 163.877C81.4813 163.877 83.884 149.218 97.8149 160.528C97.8149 160.528 85.0004 155.528 82.2094 168.877C82.2094 168.877 62.5508 152.373 49.9062 177.808Z" fill="#7AB812"/>
<path d="M91.3613 132.326C91.3613 132.326 91.5798 125.264 95.6085 123.395C99.6616 121.551 106.166 125.531 106.166 125.531C106.166 125.531 105.147 116.721 108.714 115.605C112.282 114.488 120.825 120.798 120.825 120.798C120.825 120.798 106.967 112.838 108.714 129.73C108.714 129.73 97.5259 119.876 91.3613 132.326Z" fill="#7AB812"/>
<path d="M156.281 109.489C156.281 109.489 169.314 98.713 179.702 103.179C190.065 107.62 188.779 123.031 188.779 123.031C188.779 123.031 202.685 116.357 202.685 136.768C202.685 136.768 198.05 122.109 184.871 128.055C184.871 128.055 190.259 99.0771 156.281 109.489Z" fill="#7AB812"/>
<path d="M237.779 177.808C237.779 177.808 246.322 172.978 252.996 176.692C259.695 180.405 257.074 193.244 257.074 193.244C257.074 193.244 256.346 176.497 237.779 177.808Z" fill="#7AB812"/>
<path d="M35.0036 211.082C35.0036 211.082 29.1789 205.039 31.533 197.297C33.8872 189.555 46.3862 188.802 46.3862 188.802C46.3862 188.802 30.6593 194.142 35.0036 211.082Z" fill="#7AB812"/>
<path d="M70.1719 225.329C70.1719 225.329 78.7391 228.605 82.1369 223.533C85.5589 218.46 82.1369 211.082 82.1369 211.082C82.1369 211.082 88.981 214.82 90.243 204.384C90.243 204.384 95.5824 218.509 107.839 211.519C107.839 211.519 94.83 214.189 90.1945 195.428C90.1945 195.428 88.35 210.645 79.6128 207.32C79.6128 207.32 83.1805 224.212 70.1719 225.329Z" fill="#609100"/>
<path d="M117.354 188.802C117.354 188.802 119.902 194.36 126.964 193.244C134.003 192.103 136.794 182.832 136.794 182.832C136.794 182.832 126.673 194.627 117.354 188.802Z" fill="#609100"/>
<path d="M135.484 162.008C135.484 162.008 150.896 170.77 156.284 154.145C156.284 154.145 161.866 163.683 171.501 157.009C171.501 157.009 160.555 158.853 156.284 145.505C156.284 145.505 150.726 164.994 135.484 162.008Z" fill="#609100"/>
<path d="M169.705 200.039C169.705 200.039 171.307 212.295 183.199 204.699C183.199 204.699 172.205 205.136 169.705 200.039Z" fill="#609100"/>
<path d="M166.402 164.314C166.402 164.314 167.616 169.265 172.615 170.746C177.639 172.226 184.702 168.101 184.702 168.101C184.702 168.101 173.538 169.775 166.402 164.314Z" fill="#609100"/>
<path d="M195.26 191.545C195.26 191.545 199.167 204.165 214.02 196.35C214.02 196.35 203.657 216.421 221.738 219.018C221.738 219.018 210.501 212.49 218.462 193.389C218.462 193.389 203.22 199.7 195.26 191.545Z" fill="#609100"/>
<path d="M204.871 203.607C204.871 203.607 204.871 203.615 204.871 203.631C203.755 216.106 200.454 232.173 191.061 239.211C177.592 249.331 164.365 268.407 159.996 275.009C160.991 269.961 163.078 261.199 163.078 261.199C163.078 261.199 174.728 249.817 183.198 243.142C191.668 236.468 199.216 225.013 201.206 217.805C203.172 210.597 204.871 203.607 204.871 203.607Z" fill="#66300C"/>
<path d="M174.728 392.426L174.436 392.547C170.917 364.103 161.234 351.92 155.506 318.5C149.803 285.105 155.288 262.655 155.506 235.813C155.7 209.14 153.394 171.571 153.37 171.061C154.729 178.026 155.991 184.943 156.841 190.914C160.069 213.703 162.811 244.866 163.369 270.082C163.903 295.274 163.564 311.195 168.976 336.144C172.859 354.128 174.267 379.563 174.728 392.426Z" fill="#66300C"/>
<path d="M173.199 174.92C172.738 177.128 172.422 179.191 172.349 180.915C171.961 189.822 157.375 211.519 157.375 211.519L158.346 202.515C158.346 202.515 162.472 197.734 166.403 190.914C170.214 184.312 173.029 175.454 173.199 174.92Z" fill="#66300C"/>
<path d="M152.422 224.115C151.573 247.414 149.534 265.058 148.418 288.066C147.301 311.074 148.224 330.756 147.666 346.362C147.107 361.943 119.464 398.882 119.464 398.882L119.318 398.712C122.716 391.941 134.22 367.525 135.142 345.585C136.234 319.811 136.744 297.094 140.53 276.829C144.316 256.564 148.758 232.172 148.758 212.271C148.758 203.922 147.811 185.065 146.816 167.688C146.816 167.688 153.248 200.84 152.422 224.115Z" fill="#89491D"/>
<path d="M144.461 273.577L141.743 283.382C141.743 283.382 120.749 260.398 110.459 248.385C100.169 236.347 99.0037 217.805 99.0037 217.805C102.426 230.279 108.59 243.482 118.371 252.462C128.686 261.951 138.782 269.524 144.461 273.577Z" fill="#89491D"/>
<path d="M149.414 233.774L148.2 241.662C148.2 241.662 138.76 229.406 134.124 221.809C129.488 214.213 127.547 196.205 127.547 196.205C129.197 204.165 131.94 214.189 136.041 219.674C141.065 226.396 146.429 231.299 149.414 233.774Z" fill="#89491D"/>
<path d="M151.015 302.725C151.015 302.725 151.937 326.121 151.015 340.416C150.093 354.711 147.787 360.268 142.812 369.928C137.837 379.587 125.92 393.494 124.731 397.765C123.542 402.037 128.371 400.556 131.89 400.556C135.434 400.556 136.72 406.138 139.705 404.828C142.666 403.517 141.356 393.324 145.821 379.757C150.287 366.214 155.554 354.152 156.063 342.818C156.597 331.509 151.015 302.725 151.015 302.725Z" fill="#89491D"/>
<path d="M159.219 344.129C159.219 344.129 166.791 366.02 168.66 375.51C170.504 384.975 170.65 395.29 169.728 400.532C168.805 405.774 164.194 405.604 160.869 405.022C157.52 404.464 161.816 400.702 163.466 389.586C165.116 378.471 159.219 344.129 159.219 344.129Z" fill="#66300C"/>
<path d="M157.691 352.284C157.691 352.284 150.41 373.083 149.148 380.146C147.862 387.184 146.818 400.533 146.818 400.533C146.818 400.533 153.493 380.971 155.871 374.709C158.249 368.448 157.691 352.284 157.691 352.284Z" fill="#89491D"/>
<path d="M159.608 364.734C159.608 364.734 159.632 374.2 155.871 383.107C152.133 392.014 152.012 400.532 152.012 400.532C152.012 400.532 157.278 399.125 159.996 390.193C162.715 381.262 159.608 364.734 159.608 364.734Z" fill="#66300C"/>
</g>
<defs>
<clipPath id="clip0_1608_38048">
<rect width="292" height="336" fill="white" transform="translate(4 64)"/>
</clipPath>
</defs>
</svg>
