<svg width="12" height="13" viewBox="0 0 12 13" fill="none" xmlns="http://www.w3.org/2000/svg">
<path d="M7.83299 4.32738C7.83299 4.32738 10.8667 3.45368 11.3764 5.63796C11.8861 7.79797 8.19704 8.30764 8.19704 8.30764C8.19704 8.30764 9.36199 10.3463 8.56108 11.8025C7.76018 13.2344 5.43028 11.7297 5.06623 10.1279C5.06623 10.1279 3.27026 12.4578 1.52284 11.4384C-0.224589 10.4191 2.61498 7.38537 2.61498 7.38537C2.61498 7.38537 -0.297399 7.09414 0.0666482 4.76424C0.430695 2.4586 4.14398 4.15749 4.14398 4.15749C4.14398 4.15749 3.77993 0.783997 6.30399 0.783997C8.85232 0.783997 7.83299 4.32738 7.83299 4.32738Z" fill="#D8EEEC"/>
<path d="M6.7627 5.46819C6.7627 5.46819 8.26743 5.03134 8.51013 6.12348C8.77709 7.19135 6.95686 7.43404 6.95686 7.43404C6.95686 7.43404 7.51506 8.42911 7.12675 9.15721C6.73843 9.86103 5.59775 9.10866 5.40359 8.33203C5.40359 8.33203 4.5056 9.47271 3.65616 8.98732C2.80672 8.47765 4.1901 6.97292 4.1901 6.97292C4.1901 6.97292 2.75818 6.82729 2.92807 5.68661C3.12223 4.54593 4.94246 5.39539 4.94246 5.39539C4.94246 5.39539 4.77257 3.72076 6.01033 3.72076C7.27236 3.72076 6.7627 5.46819 6.7627 5.46819Z" fill="#F3DEDA"/>
<path d="M5.74455 7.33688C5.33197 7.33688 4.99219 6.99709 4.99219 6.5845C4.99219 6.17192 5.33197 5.83215 5.74455 5.83215C6.15714 5.83215 6.47265 6.17192 6.47265 6.5845C6.47265 6.99709 6.15714 7.33688 5.74455 7.33688Z" fill="#F2FCA7"/>
</svg>
