<svg width="8" height="9" viewBox="0 0 8 9" fill="none" xmlns="http://www.w3.org/2000/svg">
<path d="M5.27002 3.17898C5.27002 3.17898 7.30868 2.5965 7.64846 4.05269C7.98824 5.50888 5.51271 5.84866 5.51271 5.84866C5.51271 5.84866 6.28935 7.20777 5.75541 8.17856C5.22148 9.17362 3.66821 8.13002 3.42552 7.06215C3.42552 7.06215 2.21202 8.63969 1.04707 7.93586C-0.142152 7.25631 1.77516 5.21764 1.77516 5.21764C1.77516 5.21764 -0.190693 5.02348 0.0520053 3.47022C0.294704 1.91695 2.7945 3.05763 2.7945 3.05763C2.7945 3.05763 2.5518 0.800537 4.25069 0.800537C5.94958 0.800537 5.27002 3.17898 5.27002 3.17898Z" fill="#D8EEEC"/>
<path d="M4.56772 3.93143C4.56772 3.93143 5.56279 3.66446 5.73268 4.36829C5.90257 5.09638 4.68907 5.26627 4.68907 5.26627C4.68907 5.26627 5.05312 5.94583 4.81042 6.40695C4.54345 6.89235 3.76682 6.38268 3.64547 5.87301C3.64547 5.87301 3.03872 6.62538 2.48052 6.2856C1.89804 5.9701 2.8203 4.95076 2.8203 4.95076C2.8203 4.95076 1.87377 4.85368 1.99512 4.07705C2.11647 3.32468 3.32996 3.88289 3.32996 3.88289C3.32996 3.88289 3.20861 2.76648 4.05805 2.76648C4.88323 2.76648 4.56772 3.93143 4.56772 3.93143Z" fill="#F3DEDA"/>
<path d="M3.86123 5.19335C3.59426 5.19335 3.35156 4.97492 3.35156 4.68368C3.35156 4.41671 3.59426 4.17401 3.86123 4.17401C4.1282 4.17401 4.3709 4.41671 4.3709 4.68368C4.3709 4.97492 4.1282 5.19335 3.86123 5.19335Z" fill="#F2FCA7"/>
</svg>
