<svg width="300" height="400" viewBox="0 0 300 400" fill="none" xmlns="http://www.w3.org/2000/svg">
<path d="M149.998 361.341C147.462 351.867 148.836 331.737 174.621 327C174.621 327.71 180.027 366.551 149.998 361.341Z" fill="#9BC13D"/>
<path d="M174.554 327L150.015 360.929C147.724 355.816 148.444 347.915 151.389 343.035C159.241 329.556 166.963 328.704 174.554 327Z" fill="#A6CE39"/>
<path d="M146.821 399.768C147.441 360.991 145.786 366.364 143.304 359.823C143.924 360.057 145.855 362.938 146.614 364.495L151.786 359.589L147.027 365.429C148.062 370.335 149.441 390.113 149.51 399.301L146.821 399.768Z" fill="#9BC13D"/>
<path d="M156.018 337.043C149.945 343.235 149.554 353.098 149.554 353.786C150.337 341.63 162.221 332.15 168.75 328.786C166.53 329.474 160.876 332.088 156.018 337.043Z" fill="white"/>
<path d="M125.051 340.296C124.526 349.271 127.846 366.239 145.326 362.305L125.051 340.296Z" fill="#9BC13D"/>
<path d="M145.276 362.305C145.603 355.125 141.834 340.296 125 340.296L145.276 362.305Z" fill="#A6CE39"/>
<path d="M131.363 342.439C131.22 342.423 131.084 342.412 130.956 342.403C131.084 342.403 131.22 342.416 131.363 342.439C133.94 342.724 138.859 344.289 140.799 348.725C138.626 346.732 133.87 342.853 131.363 342.439Z" fill="white"/>
<path d="M148.088 383.532C147.233 389.094 147.324 397.315 147.324 397.541V398.875L148.661 398.423C148.47 395.712 148.47 381.047 148.088 383.532Z" fill="#AAD442"/>
<path d="M127.232 342.625C132.892 348.268 144.301 360.078 144.654 360.269L145.536 361.223V363.607L143.992 360.746L127.232 342.625Z" fill="#7DA513"/>
<path d="M164.732 339.946C159.739 347.078 149.713 361.389 149.554 361.581L149.953 361.821L164.732 339.946Z" fill="#7DA513"/>
</svg>
