<svg width="14" height="12" viewBox="0 0 14 12" fill="none" xmlns="http://www.w3.org/2000/svg">
<path d="M7.11644 11.7443C7.01866 11.7606 6.92087 11.7769 6.82308 11.7932C2.47169 12.6488 -0.608518 6.65949 0.95603 2.94369C2.52058 -0.845451 5.69857 0.719093 7.11644 0.816878C7.72759 0.767985 8.65655 0.474639 9.65884 0.425747C10.9789 0.352408 12.3968 0.767988 13.3013 2.94369C14.8903 6.75727 11.639 12.9177 7.11644 11.7443Z" fill="#ED1C24"/>
<path d="M7.11719 11.7443C8.75507 11.6221 10.9308 9.66638 11.713 7.09954C12.4953 4.53271 11.3708 1.20805 9.65958 0.425772C10.9797 0.352434 12.3975 0.768014 13.302 2.94371C14.891 6.7573 11.6397 12.9177 7.11719 11.7443Z" fill="#D81322"/>
<path d="M4.98764 1.20799C4.25426 0.547944 1.93189 1.84358 1.58965 3.50591C1.22296 5.16824 2.05412 8.10177 2.76306 8.19955C3.47199 8.32178 3.98535 6.58611 3.71644 4.67932C3.44754 2.79697 5.8677 1.99026 4.98764 1.20799Z" fill="#F74350"/>
</svg>
