<svg width="20" height="20" viewBox="0 0 20 20" fill="none" xmlns="http://www.w3.org/2000/svg">
<path d="M6.36715 6.32448C6.36715 6.32448 4.91097 1.25209 8.52717 0.402645C12.1676 -0.446799 13.0171 5.71773 13.0171 5.71773C13.0171 5.71773 16.3906 3.80042 18.8176 5.13526C21.2203 6.44583 18.6962 10.329 16.0265 10.9357C16.0265 10.9357 19.9097 13.9452 18.2108 16.8576C16.5119 19.7457 11.4396 15.0373 11.4396 15.0373C11.4396 15.0373 10.9541 19.867 7.09525 19.2603C3.21208 18.6778 6.07591 12.489 6.07591 12.489C6.07591 12.489 0.445312 13.0958 0.445312 8.87281C0.445312 4.64986 6.36715 6.32448 6.36715 6.32448Z" fill="#D8EEEC"/>
<path d="M8.26086 8.0961C8.26086 8.0961 7.53277 5.59631 9.32874 5.18372C11.1247 4.77114 11.5373 7.80487 11.5373 7.80487C11.5373 7.80487 13.2119 6.85834 14.4011 7.51363C15.5903 8.16891 14.3526 10.062 13.042 10.3775C13.042 10.3775 14.9351 11.8579 14.1099 13.2898C13.2847 14.7218 10.7606 12.3919 10.7606 12.3919C10.7606 12.3919 10.518 14.7946 8.62491 14.4791C6.70759 14.1878 8.11525 11.1541 8.11525 11.1541C8.11525 11.1541 5.32422 11.4453 5.32422 9.35814C5.32422 7.27093 8.26086 8.0961 8.26086 8.0961Z" fill="#F3DEDA"/>
<path d="M11.367 9.81944C11.367 10.5233 10.8088 11.0815 10.105 11.0815C9.4254 11.0815 8.86719 10.5233 8.86719 9.81944C8.86719 9.13989 9.4254 8.58168 10.105 8.58168C10.8088 8.58168 11.367 9.13989 11.367 9.81944Z" fill="#F2FCA7"/>
</svg>
