<svg width="75" height="75" viewBox="0 0 75 75" fill="none" xmlns="http://www.w3.org/2000/svg">
<rect width="75" height="75" fill="#0A368B"/>
<path d="M23.322 48.7529C23.322 52.596 24.6618 56.1033 26.8676 58.7666C20.6758 55.9283 16.3495 49.4531 16.3495 41.9191C16.3495 31.7678 24.2041 23.5385 33.8931 23.5385C37.2175 23.5385 40.326 24.5073 42.9753 26.1901C42.1247 26.6533 41.5404 27.6134 41.5404 28.7228C41.5404 30.2846 42.6984 31.5506 44.1269 31.5506C45.3714 31.5506 46.4105 30.5898 46.6577 29.3097C47.9433 30.7377 49.0129 32.3814 49.812 34.1835L60 39.5476L51.139 45.6502C49.8055 38.8094 44.1517 33.6714 37.3794 33.6714C29.6157 33.6714 23.322 40.4236 23.322 48.7529Z" fill="#FFF8F0"/>
<path d="M39.741 21.0642C39.741 23.7322 37.6767 25.895 35.1302 25.895C32.5837 25.895 30.5194 23.7322 30.5194 21.0642C30.5194 18.3962 32.5837 16.2334 35.1302 16.2334C37.6767 16.2334 39.741 18.3962 39.741 21.0642Z" fill="#FFF8F0"/>
<path d="M31.644 25.3059C31.644 27.9739 29.5796 30.1367 27.0331 30.1367C24.4866 30.1367 22.4223 27.9739 22.4223 25.3059C22.4223 22.6379 24.4866 20.4751 27.0331 20.4751C29.5796 20.4751 31.644 22.6379 31.644 25.3059Z" fill="#FFF8F0"/>
<path d="M24.2216 30.7258C24.2216 33.3938 22.1573 35.5566 19.6108 35.5566C17.0643 35.5566 15 33.3938 15 30.7258C15 28.0578 17.0643 25.895 19.6108 25.895C22.1573 25.895 24.2216 28.0578 24.2216 30.7258Z" fill="#FFF8F0"/>
</svg>
