<svg width="15" height="14" viewBox="0 0 15 14" fill="none" xmlns="http://www.w3.org/2000/svg">
<path d="M7.41176 13.0392C7.29768 13.0718 7.18359 13.0962 7.06951 13.1125C2.20474 14.0659 -1.2177 7.36772 0.493521 3.21189C2.27808 -1.06617 5.82276 0.7184 7.41176 0.816184C8.09625 0.767292 9.14742 0.42505 10.2475 0.376158C11.7387 0.30282 13.3277 0.767289 14.33 3.21189C16.1146 7.46551 12.4721 14.3837 7.41176 13.0392Z" fill="#ED1C24"/>
<path d="M7.41016 13.0392C9.24361 12.917 11.6882 10.7413 12.5683 7.85663C13.4483 4.972 12.1527 1.2562 10.2459 0.376146C11.7371 0.302808 13.3261 0.767277 14.3284 3.21188C16.113 7.4655 12.4705 14.3837 7.41016 13.0392Z" fill="#D81322"/>
<path d="M5.01525 1.2562C4.20853 0.522823 1.61725 1.96514 1.20167 3.82304C0.810531 5.68094 1.73948 8.95672 2.5462 9.1034C3.35292 9.22563 3.91518 7.26994 3.59738 5.14313C3.30403 3.01633 6.01754 2.13626 5.01525 1.2562Z" fill="#F74350"/>
</svg>
