<svg width="75" height="75" viewBox="0 0 75 75" fill="none" xmlns="http://www.w3.org/2000/svg">
<rect width="75" height="75" fill="#616161"/>
<path d="M26.077 47.0744L22.8412 34.7831H20L26.077 52.0251L29.8652 46.3062L35.8633 58V53.1347L31.9172 34.7831H28.9182L26.077 47.0744Z" fill="#FFF8F0"/>
<path d="M46.6192 47.0744L50.0091 34.7831H52.9856L46.6192 52.0251L42.6506 46.3062L36.3669 58V53.1347L40.5009 34.7831H43.6428L46.6192 47.0744Z" fill="#FFF8F0"/>
<path d="M48.6336 29.7853L52.0235 33.0542H55L48.6336 28.4686L44.665 29.9896L38.3813 26.8795V28.1735L42.5153 33.0542H45.6571L48.6336 29.7853Z" fill="#FFF8F0"/>
<path d="M38.3099 19.9057L41.6998 23.1747H44.6763L38.3099 18.5891L34.3412 20.1101L28.0576 17V18.294L32.1916 23.1747H35.3334L38.3099 19.9057Z" fill="#FFF8F0"/>
<path d="M31.5113 28.0563L34.9012 31.3253H37.8777L31.5113 26.7397L27.5427 28.2607L21.259 25.1506V26.4446L25.393 31.3253H28.5348L31.5113 28.0563Z" fill="#FFF8F0"/>
</svg>
