<svg width="9" height="9" viewBox="0 0 9 9" fill="none" xmlns="http://www.w3.org/2000/svg">
<path d="M5.66088 3.09694C5.66088 3.09694 7.69956 2.51446 8.03933 3.97065C8.37911 5.42684 5.90358 5.76662 5.90358 5.76662C5.90358 5.76662 6.68021 7.12573 6.14628 8.09652C5.61234 9.06731 4.03481 8.04799 3.79212 6.98011C3.79212 6.98011 2.57861 8.53338 1.41366 7.85382C0.248711 7.17427 2.14176 5.1356 2.14176 5.1356C2.14176 5.1356 0.200171 4.94145 0.44287 3.38819C0.685568 1.83492 3.16111 2.9756 3.16111 2.9756C3.16111 2.9756 2.9184 0.718506 4.64156 0.718506C6.34045 0.718506 5.66088 3.09694 5.66088 3.09694Z" fill="#D8EEEC"/>
<path d="M4.93075 3.84934C4.93075 3.84934 5.95009 3.55809 6.11998 4.28619C6.28986 5.01428 5.0521 5.18417 5.0521 5.18417C5.0521 5.18417 5.44041 5.83946 5.17345 6.32486C4.90648 6.81026 4.15413 6.30059 4.03278 5.76666C4.03278 5.76666 3.42603 6.54329 2.84355 6.20351C2.26107 5.86373 3.2076 4.86867 3.2076 4.86867C3.2076 4.86867 2.2368 4.7716 2.35815 3.99496C2.4795 3.2426 3.71726 3.80079 3.71726 3.80079C3.71726 3.80079 3.59591 2.68439 4.44535 2.68439C5.27053 2.68439 4.93075 3.84934 4.93075 3.84934Z" fill="#F3DEDA"/>
<path d="M4.25185 5.11132C3.96061 5.11132 3.74219 4.86862 3.74219 4.60165C3.74219 4.33469 3.96061 4.09198 4.25185 4.09198C4.51882 4.09198 4.73724 4.33469 4.73724 4.60165C4.73724 4.86862 4.51882 5.11132 4.25185 5.11132Z" fill="#F2FCA7"/>
</svg>
