<svg width="405" height="200" viewBox="0 0 405 200" fill="none" xmlns="http://www.w3.org/2000/svg">
<path d="M3.89651 155.963C-3.88439 138.781 11.527 134.086 14.0011 132.634C18.6239 130.774 29.0908 125.212 33.9765 117.841C40.0837 108.628 49.7069 107.586 62.3054 96.3544C74.904 85.1228 71.8177 83.3519 80.6921 81.47C89.5666 79.5882 96.1035 76.7753 99.8277 67.4255C103.552 58.0757 115.877 51.6101 121.437 51.9291C126.998 52.248 130.904 39.7208 140.664 36.2959C150.424 32.871 160.776 19.1196 165.021 14.5814C169.266 10.0432 203.651 8.0307 215.201 15.0689C226.752 22.107 231.472 23.1748 238.211 30.7339C243.602 36.7812 245.706 43.6494 246.083 46.3275C278.515 50.5787 252.484 45.8977 277.128 60.8595C301.772 75.8213 303.68 70.3521 308.192 88.9408C312.705 107.53 318.265 107.849 349.674 116.026C381.083 124.203 357.702 142.786 383.733 147.467C409.764 152.148 389.698 168.53 382.002 177.652C374.306 186.774 359.578 179.553 346.075 178.779C332.571 178.004 299.599 155.392 281.485 165.51C263.372 175.629 266.028 170.999 245.193 172.992C224.358 174.985 211.669 187.805 205.314 187.441C198.959 187.076 190.905 174.66 183.756 174.25C176.607 173.84 162.42 184.98 154.476 184.524C146.533 184.069 114.648 170.286 102.733 169.602C90.8182 168.919 88.1162 174.342 82.6014 173.229C77.0866 172.116 68.5767 167.643 55.8672 166.914C43.1578 166.185 39.5248 173.946 24.9989 177.098C10.473 180.249 11.6774 173.146 3.89651 155.963Z" fill="#733D10"/>
<path d="M17.4367 146.403C11.7527 139.209 23.1207 137.051 32.5941 133.454C36.6993 131.296 40.3111 121.479 50.9213 114.573C58.5 110.256 54.5188 107.598 66.8342 101.843C79.1496 96.0872 72.3824 99.489 79.9611 92.2948C87.5398 85.1006 91.3847 89.5693 97.0687 81.6557C102.753 73.7421 104.911 64.4472 110.595 64.4472C116.279 64.4472 122.263 59.9354 128.895 54.8995C135.526 49.8635 141.51 45.69 147.194 41.3735C152.878 37.057 170.797 23.6406 177.429 21.4824C184.06 19.3241 190.159 18.2997 205.276 21.4823C219.765 24.5325 225.22 31.5362 223.957 32.7353V43.5265C218.272 50.7207 201.41 54.03 187.01 61.512C169.011 70.8644 162.38 78.778 158.59 81.6557C155.559 83.9578 136.965 97.0464 131.281 101.843C120.545 107.838 111.697 130.74 85.9297 137.646C76.7569 140.105 68.3448 147.051 59.6734 151.968C43.9856 160.864 27.2375 167.75 27.8476 168.677C20.5846 171.075 21.9839 152.159 17.4367 146.403Z" fill="#874B0C"/>
<path d="M22.8512 152.148C22.8512 138.126 38.4744 141.725 41.9467 133.848C44.955 131.836 55.6537 126.762 63.4291 120.322C68.9829 116.298 67.1344 116.141 76.1594 110.775C85.1844 105.408 85.7228 101.57 91.2767 94.8618C96.8305 88.1537 98.2503 92.213 102.416 84.8341C106.581 77.4552 110.981 78.9489 115.146 78.9489C119.311 78.9489 123.239 73.121 128.099 68.4253C132.958 63.7297 133.672 62.6974 137.838 58.6725C142.003 54.6477 144.086 55.3185 148.945 53.3061C153.805 51.2936 158.538 44.5722 170.268 36.5996C183.474 27.6237 210.355 26.9995 206.868 31.0301L213.233 39.7822C209.067 46.4903 192.546 42.9648 164.699 65.2428C154.028 73.7794 134.854 82.1508 132.077 84.8341C129.856 86.9807 106.581 110.896 102.416 115.368C94.5477 120.959 95.0425 130.411 76.1594 136.851C57.2763 143.291 47.0444 149.035 47.7387 150.377C42.4162 152.613 22.8512 169.472 22.8512 152.148Z" fill="#A46004"/>
</svg>
