<svg width="8" height="9" viewBox="0 0 8 9" fill="none" xmlns="http://www.w3.org/2000/svg">
<path d="M5.57885 3.17107C5.57885 3.17107 7.61751 2.56432 7.95729 4.04478C8.29707 5.50097 5.82155 5.84075 5.82155 5.84075C5.82155 5.84075 6.59818 7.19986 6.06425 8.17065C5.53031 9.14144 3.97703 8.12211 3.73433 7.05424C3.73433 7.05424 2.52085 8.60751 1.33163 7.92795C0.16668 7.2484 2.05973 5.20973 2.05973 5.20973C2.05973 5.20973 0.11814 5.01557 0.360838 3.4623C0.603537 1.88476 3.10332 3.04972 3.10332 3.04972C3.10332 3.04972 2.86063 0.768356 4.55951 0.768356C6.2584 0.768356 5.57885 3.17107 5.57885 3.17107Z" fill="#D8EEEC"/>
<path d="M4.87631 3.92342C4.87631 3.92342 5.87137 3.63218 6.04126 4.36028C6.21115 5.08837 4.97339 5.23399 4.97339 5.23399C4.97339 5.23399 5.36171 5.91354 5.09474 6.39894C4.85204 6.88434 4.07541 6.37467 3.95406 5.84074C3.95406 5.84074 3.34731 6.61737 2.76483 6.27759C2.20663 5.93781 3.12888 4.94275 3.12888 4.94275C3.12888 4.94275 2.18236 4.84567 2.30371 4.06904C2.42506 3.2924 3.63855 3.87488 3.63855 3.87488C3.63855 3.87488 3.5172 2.75847 4.36665 2.75847C5.19182 2.75847 4.87631 3.92342 4.87631 3.92342Z" fill="#F3DEDA"/>
<path d="M4.16983 5.16119C3.87859 5.16119 3.66016 4.94277 3.66016 4.6758C3.66016 4.38456 3.87859 4.16614 4.16983 4.16614C4.4368 4.16614 4.67949 4.38456 4.67949 4.6758C4.67949 4.94277 4.4368 5.16119 4.16983 5.16119Z" fill="#F2FCA7"/>
</svg>
