<svg width="12" height="13" viewBox="0 0 12 13" fill="none" xmlns="http://www.w3.org/2000/svg">
<path d="M8.07495 9.15849C8.07495 9.15849 8.12349 12.3378 5.89067 12.2408C3.65785 12.1679 4.14324 8.47894 4.14324 8.47894C4.14324 8.47894 1.88614 9.06141 0.696923 7.92073C-0.492298 6.75578 1.57063 4.91127 3.19671 4.98408C3.19671 4.98408 1.44929 2.6299 2.88121 1.22225C4.31312 -0.185395 6.49741 3.33373 6.49741 3.33373C6.49741 3.33373 7.541 0.615515 9.70102 1.56204C11.8368 2.53283 9.21562 5.63936 9.21562 5.63936C9.21562 5.63936 12.5649 6.1733 11.9096 8.62455C11.2543 11.0758 8.07495 9.15849 8.07495 9.15849Z" fill="#D8EEEC"/>
<path d="M7.24993 7.84793C7.24993 7.84793 7.2742 9.40121 6.18205 9.37694C5.08991 9.3284 5.30835 7.50816 5.30835 7.50816C5.30835 7.50816 4.19194 7.79939 3.60946 7.21692C3.02698 6.65871 4.04631 5.76072 4.84721 5.78499C4.84721 5.78499 3.97351 4.62005 4.7016 3.91623C5.40543 3.21241 6.47329 4.95983 6.47329 4.95983C6.47329 4.95983 7.00723 3.62498 8.05083 4.08611C9.1187 4.5715 7.80814 6.10051 7.80814 6.10051C7.80814 6.10051 9.48275 6.36748 9.14297 7.58097C8.82747 8.79446 7.24993 7.84793 7.24993 7.84793Z" fill="#F3DEDA"/>
<path d="M5.74237 6.36735C5.83945 5.95476 6.25203 5.73633 6.66462 5.83341C7.05294 5.93049 7.29564 6.34308 7.17429 6.75566C7.07722 7.14398 6.66463 7.38669 6.25204 7.26534C5.86373 7.16826 5.62102 6.75567 5.74237 6.36735Z" fill="#F2FCA7"/>
</svg>
