<svg width="22" height="19" viewBox="0 0 22 19" fill="none" xmlns="http://www.w3.org/2000/svg">
<path d="M11.3411 18.5776C11.1781 18.6102 11.0151 18.6428 10.8522 18.6754C4.00725 19.9955 -0.833063 10.5837 1.61154 4.74114C4.10504 -1.24814 9.09204 1.24536 11.3411 1.36759C12.2945 1.31869 13.7612 0.829774 15.3258 0.756436C17.4037 0.658651 19.6283 1.31869 21.0462 4.74114C23.5397 10.706 18.4304 20.4355 11.3411 18.5776Z" fill="#ED1C24"/>
<path d="M11.3398 18.5776C13.8822 18.382 17.3047 15.3263 18.5759 11.2682C19.7982 7.23464 18.0136 1.97874 15.3245 0.756436C17.4025 0.658651 19.6271 1.31869 21.0449 4.74114C23.5384 10.706 18.4292 20.4355 11.3398 18.5776Z" fill="#D81322"/>
<path d="M7.96595 2.00317C6.81699 0.951985 3.17452 2.98101 2.61226 5.59674C2.05 8.21247 3.34564 12.8328 4.47016 13.0283C5.59467 13.1995 6.4014 10.4615 5.96137 7.47909C5.54579 4.47222 9.33493 3.22547 7.96595 2.00317Z" fill="#F74350"/>
</svg>
