<svg width="22" height="19" viewBox="0 0 22 19" fill="none" xmlns="http://www.w3.org/2000/svg">
<path d="M11.345 18.137C11.182 18.1859 11.019 18.2267 10.856 18.2593C4.01115 19.5549 -0.829155 10.1432 1.61545 4.30055C4.10895 -1.68874 9.09593 0.804763 11.345 0.926994C12.2984 0.878101 13.7651 0.389189 15.3297 0.340297C17.4076 0.242513 19.6322 0.878098 21.0745 4.30055C23.5436 10.2898 18.4343 20.0194 11.345 18.137Z" fill="#ED1C24"/>
<path d="M11.3438 18.1371C13.8861 17.9415 17.333 14.9102 18.5798 10.8521C19.8021 6.79409 18.0175 1.56263 15.3285 0.340327C17.4064 0.242543 19.631 0.878128 21.0733 4.30058C23.5423 10.2899 18.4331 20.0194 11.3438 18.1371Z" fill="#D81322"/>
<path d="M7.96986 1.5626C6.8209 0.535867 3.17843 2.56489 2.61617 5.18061C2.05391 7.79634 3.34954 12.4166 4.47406 12.5878C5.59858 12.7833 6.40529 10.0454 5.98971 7.03851C5.54968 4.05609 9.33884 2.7849 7.96986 1.5626Z" fill="#F74350"/>
</svg>
