<svg width="12" height="13" viewBox="0 0 12 13" fill="none" xmlns="http://www.w3.org/2000/svg">
<path d="M7.80174 3.99954C7.80174 3.99954 10.8355 3.12584 11.3451 5.31012C11.8548 7.47013 8.16579 7.9798 8.16579 7.9798C8.16579 7.9798 9.33074 10.0185 8.52983 11.4504C7.72893 12.9066 5.39902 11.3776 5.03497 9.80003C5.03497 9.80003 3.23901 12.1057 1.49159 11.0863C-0.255839 10.0913 2.58373 7.03327 2.58373 7.03327C2.58373 7.03327 -0.328649 6.74204 0.0353982 4.4364C0.399445 2.1065 4.11272 3.82966 4.11272 3.82966C4.11272 3.82966 3.74868 0.431885 6.27274 0.431885C8.82107 0.431885 7.80174 3.99954 7.80174 3.99954Z" fill="#D8EEEC"/>
<path d="M6.73471 5.14022C6.73471 5.14022 8.23945 4.70337 8.48214 5.77124C8.74911 6.83911 6.92887 7.10608 6.92887 7.10608C6.92887 7.10608 7.48708 8.10114 7.09876 8.82924C6.71044 9.53306 5.56977 8.78069 5.37561 8.00406C5.37561 8.00406 4.47762 9.14474 3.62818 8.63508C2.77874 8.12541 4.16212 6.64496 4.16212 6.64496C4.16212 6.64496 2.73019 6.49933 2.92435 5.35865C3.09424 4.1937 4.91448 5.04315 4.91448 5.04315C4.91448 5.04315 4.74459 3.36853 5.98236 3.36853C7.24439 3.36853 6.73471 5.14022 6.73471 5.14022Z" fill="#F3DEDA"/>
<path d="M5.7133 6.98473C5.30071 6.98473 4.96094 6.64495 4.96094 6.23237C4.96094 5.81978 5.30071 5.50427 5.7133 5.50427C6.12588 5.50427 6.44139 5.81978 6.44139 6.23237C6.44139 6.64495 6.12588 6.98473 5.7133 6.98473Z" fill="#F2FCA7"/>
</svg>
