<svg width="350" height="173" viewBox="0 0 350 173" fill="none" xmlns="http://www.w3.org/2000/svg">
<path d="M3.37094 135.001C-3.36416 120.128 9.97585 116.064 12.1175 114.808C16.1189 113.197 25.179 108.382 29.408 102.003C34.6943 94.0278 43.0241 93.1259 53.9294 83.4038C64.8346 73.6818 62.1632 72.1489 69.8448 70.52C77.5265 68.8911 83.1848 66.4563 86.4084 58.3632C89.632 50.27 100.301 44.6734 105.114 44.9495C109.927 45.2256 113.308 34.3821 121.756 31.4175C130.204 28.4529 139.165 16.5498 142.839 12.6216C146.514 8.69331 176.277 6.95133 186.275 13.0435C196.273 19.1357 200.359 20.0599 206.192 26.6031C210.859 31.8376 212.679 37.7826 213.006 40.1008C241.079 43.7806 218.546 39.7288 239.878 52.6796C261.21 65.6305 262.862 60.8963 266.767 76.9866C270.673 93.077 275.486 93.353 302.674 100.431C329.861 107.509 309.623 123.594 332.156 127.646C354.688 131.698 337.318 145.878 330.657 153.774C323.995 161.67 311.247 155.42 299.558 154.75C287.869 154.079 259.329 134.506 243.65 143.265C227.971 152.023 230.271 148.016 212.236 149.741C194.201 151.466 183.217 162.563 177.717 162.247C172.216 161.932 165.244 151.184 159.056 150.829C152.868 150.475 140.588 160.118 133.712 159.723C126.836 159.329 99.2371 147.398 88.9235 146.807C78.6098 146.215 76.271 150.91 71.4974 149.946C66.7239 148.982 59.3577 145.111 48.3565 144.48C37.3553 143.849 34.2106 150.567 21.637 153.295C9.06349 156.023 10.106 149.874 3.37094 135.001Z" fill="#733D10"/>
<path d="M15.0924 126.726C10.1724 120.499 20.0125 118.631 28.2126 115.517C31.766 113.649 34.8924 105.152 44.0765 99.1737C50.6366 95.4374 47.1905 93.1362 57.8506 88.1544C68.5107 83.1726 62.6531 86.1172 69.2132 79.8899C75.7732 73.6627 79.1014 77.5308 84.0214 70.6808C88.9415 63.8308 90.8094 55.7852 95.7294 55.7852C100.649 55.7852 105.83 51.8798 111.57 47.5208C117.31 43.1617 122.49 39.5491 127.41 35.8128C132.33 32.0764 147.841 20.4633 153.581 18.5951C159.321 16.7269 164.6 15.8402 177.685 18.5951C190.227 21.2353 194.948 27.2977 193.855 28.3356V37.6764C188.935 43.9037 174.339 46.7682 161.874 53.2445C146.294 61.3399 140.554 68.1899 137.274 70.6808C134.65 72.6735 118.556 84.0029 113.636 88.1544C104.342 93.3438 96.6838 113.168 74.3795 119.146C66.4396 121.274 59.1582 127.287 51.6523 131.543C38.073 139.243 23.5759 145.204 24.104 146.006C17.8173 148.081 19.0285 131.708 15.0924 126.726Z" fill="#874B0C"/>
<path d="M19.7812 131.699C19.7813 119.561 33.3046 122.677 36.3102 115.858C38.9142 114.116 48.1749 109.725 54.9052 104.15C59.7126 100.666 58.1125 100.531 65.9245 95.8859C73.7365 91.2407 74.2026 87.9183 79.0099 82.1118C83.8173 76.3053 85.0463 79.819 88.6518 73.4319C92.2574 67.0447 96.0656 68.3377 99.6711 68.3377C103.277 68.3377 106.677 63.2931 110.883 59.2286C115.089 55.164 115.707 54.2705 119.313 50.7866C122.918 47.3027 124.721 47.8834 128.928 46.1414C133.134 44.3995 137.231 38.5814 147.384 31.6804C158.816 23.9109 182.083 23.3706 179.065 26.8595L184.575 34.4352C180.969 40.2417 166.668 37.1901 142.563 56.4738C133.327 63.863 116.73 71.1093 114.327 73.4319C112.404 75.29 92.2574 95.9913 88.6518 99.8623C81.8414 104.701 82.2697 112.883 65.9245 118.457C49.5794 124.032 40.7228 129.004 41.3237 130.165C36.7166 132.101 19.7812 146.694 19.7812 131.699Z" fill="#A46004"/>
</svg>
