<svg width="22" height="19" viewBox="0 0 22 19" fill="none" xmlns="http://www.w3.org/2000/svg">
<path d="M11.1039 17.8527C10.9572 17.8853 10.8024 17.9179 10.6394 17.9505C10.6394 17.9505 10.6312 17.9505 10.6149 17.9505C3.77005 19.2706 -1.04582 9.85885 1.39878 4.01624C3.89228 -1.97304 8.87928 0.520457 11.1039 0.642688C12.0817 0.593796 13.5485 0.104874 15.0886 0.0315363C17.1665 -0.066248 19.4155 0.593792 20.8334 4.01624C23.3269 9.98108 18.2177 19.7106 11.1039 17.8527Z" fill="#ED1C24"/>
<path d="M11.1016 17.8527C13.6684 17.6571 17.0908 14.6014 18.3376 10.5433C19.5843 6.50973 17.7753 1.25383 15.0863 0.0315286C17.1642 -0.0662556 19.4132 0.593785 20.8311 4.01623C23.3246 9.98107 18.2154 19.7106 11.1016 17.8527Z" fill="#D81322"/>
<path d="M7.75501 1.25384C6.60605 0.227105 2.93914 2.25612 2.40132 4.87185C1.83906 7.48758 3.13471 12.1079 4.25923 12.3034C5.38374 12.4746 6.19047 9.73662 5.75044 6.7542C5.31041 3.74734 9.12399 2.50059 7.75501 1.25384Z" fill="#F74350"/>
</svg>
