<svg width="300" height="400" viewBox="0 0 300 400" fill="none" xmlns="http://www.w3.org/2000/svg">
<g clip-path="url(#clip0_1591_37712)">
<path d="M121.962 306.97C121.962 306.97 119.038 314.264 121.962 320.52C124.912 326.776 133.683 326.491 133.683 326.491C133.683 326.491 133.24 321.091 131.49 316.73C129.741 312.369 124.468 309.306 121.962 306.97Z" fill="#66A400"/>
<path d="M152.192 280.208C152.192 280.208 146.632 285.01 144.856 290.123C143.107 295.211 144.726 300.455 149.555 304.244C149.555 304.244 156.865 299.287 156.291 291.577C155.69 283.868 152.192 280.208 152.192 280.208Z" fill="#66A400"/>
<path d="M177.803 296.068C177.803 296.068 169.266 300.065 167.517 307.36C165.768 314.654 170.023 319.144 170.023 319.144C170.023 319.144 176.785 318.937 178.064 312.889C180.126 303.128 177.803 296.068 177.803 296.068Z" fill="#66A400"/>
<path d="M174.357 440.471C170.441 435.28 169.501 428.297 171.407 422.145C171.485 421.548 171.851 421.211 172.295 420.821C182.58 410.594 167.909 401.041 161.382 393.981C153.629 384.091 151.514 372.28 154.934 360.21C155.952 356.134 157.466 351.981 158.145 347.802C163.549 344.038 167.622 338.198 168.587 331.63C168.927 329.112 169.345 326.413 169.841 323.921C171.303 316.756 173.208 309.618 175.192 302.583C172.242 309.903 169.71 317.431 167.909 325.115C166.395 333.551 165.455 339.028 158.563 344.998C160.86 322.363 145.014 316.237 151.54 285.607C142.22 316.523 159.503 324.025 154.699 347.153C152.637 340.638 147.52 335.498 141.489 332.435C134.284 327.84 129.141 320.702 124.259 313.849C128.253 321.533 133.109 329.164 140.341 334.252C142.142 335.316 143.943 336.458 145.51 337.834C149.687 341.494 155.247 349.411 152.428 354.94C151.984 356.264 151.488 357.9 151.122 359.223C149.243 366.05 148.199 373.396 149.869 380.405C151.723 387.206 154.908 394.318 160.207 399.069C160.912 402.859 161.017 406.83 159.894 410.542C156.265 412.774 151.932 412.281 147.911 411.606C142.638 411.373 138.148 415.266 135.72 419.601C146.554 408.803 148.329 417.109 158.589 413.683C156.109 418.615 151.018 421.107 146.397 423.677C141.672 426.688 140.132 432.97 142.116 438.031C140.262 428.998 145.222 425.312 152.872 422.249C160.338 418.485 164.358 410.023 163.34 401.872C174.253 411.451 175.636 413.527 165.011 424.04C157.231 432.217 148.199 444.209 154.908 455.605C149.478 443.379 159.894 432.736 168.17 424.871C166.656 433.411 171.694 442.029 179.343 445.845C177.464 444.209 175.767 442.418 174.357 440.471Z" fill="#5A6008"/>
</g>
<defs>
<clipPath id="clip0_1591_37712">
<rect width="59" height="120" fill="white" transform="translate(120.5 280)"/>
</clipPath>
</defs>
</svg>
