<svg width="75" height="75" viewBox="0 0 75 75" fill="none" xmlns="http://www.w3.org/2000/svg">
<rect width="75" height="75" fill="#FDAF27"/>
<path fill-rule="evenodd" clip-rule="evenodd" d="M52.4277 27C49.5082 27 46.867 28.1915 44.9639 30.1148C43.0607 28.1915 40.4195 27 37.5 27C34.5805 27 31.9393 28.1915 30.0362 30.1148C28.133 28.1915 25.4918 27 22.5723 27C16.7733 27 12.0723 31.701 12.0723 37.5C12.0723 43.299 16.7733 48 22.5723 48C25.4918 48 28.133 46.8085 30.0362 44.8852C31.9393 46.8085 34.5805 48 37.5 48C40.4195 48 43.0607 46.8085 44.9639 44.8852C46.867 46.8085 49.5082 48 52.4277 48C58.2267 48 62.9277 43.299 62.9277 37.5C62.9277 31.701 58.2267 27 52.4277 27ZM22.9518 31.3012C24.8845 31.3012 26.6146 32.1679 27.7749 33.5339C27.7689 33.5487 27.7629 33.5635 27.7569 33.5783H47.2432C47.2372 33.5635 47.2312 33.5487 47.2252 33.5339C48.3854 32.1679 50.1156 31.3012 52.0482 31.3012H52.8073C56.3006 31.3012 59.1326 34.1331 59.1326 37.6265C59.1326 41.1199 56.3006 43.9518 52.8073 43.9518H52.0482C50.0947 43.9518 48.3481 43.0663 47.1878 41.6747H27.8122C26.652 43.0663 24.9053 43.9518 22.9518 43.9518H22.1928C18.6994 43.9518 15.8675 41.1199 15.8675 37.6265C15.8675 34.1331 18.6994 31.3012 22.1928 31.3012H22.9518ZM50.0241 37.6265C50.0241 38.8841 51.0436 39.9036 52.3012 39.9036H52.5542C53.8119 39.9036 54.8313 38.8841 54.8313 37.6265C54.8313 36.3689 53.8119 35.3494 52.5542 35.3494H52.3012C51.0436 35.3494 50.0241 36.3689 50.0241 37.6265ZM20.1687 37.6265C20.1687 38.8841 21.1882 39.9036 22.4458 39.9036H22.6988C23.9564 39.9036 24.9759 38.8841 24.9759 37.6265C24.9759 36.3689 23.9564 35.3494 22.6988 35.3494H22.4458C21.1882 35.3494 20.1687 36.3689 20.1687 37.6265Z" fill="#FFF8F0"/>
</svg>
