<svg width="9" height="9" viewBox="0 0 9 9" fill="none" xmlns="http://www.w3.org/2000/svg">
<path d="M5.60536 3.0143C5.60536 3.0143 7.64402 2.43184 7.9838 3.88803C8.32358 5.34421 5.84806 5.68398 5.84806 5.68398C5.84806 5.68398 6.62469 7.0431 6.09075 8.01389C5.55682 9.00896 4.00355 7.96535 3.76085 6.89747C3.76085 6.89747 2.54736 8.47502 1.38241 7.7712C0.217461 7.09164 2.11051 5.05297 2.11051 5.05297C2.11051 5.05297 0.168922 4.85881 0.41162 3.30554C0.654318 1.75228 3.12984 2.89295 3.12984 2.89295C3.12984 2.89295 2.88714 0.635864 4.58603 0.635864C6.28491 0.635864 5.60536 3.0143 5.60536 3.0143Z" fill="#D8EEEC"/>
<path d="M4.90341 3.76675C4.90341 3.76675 5.89847 3.49978 6.06836 4.20361C6.23825 4.9317 5.02476 5.10159 5.02476 5.10159C5.02476 5.10159 5.41308 5.78115 5.14611 6.24228C4.87914 6.72767 4.10251 6.21801 3.98116 5.70834C3.98116 5.70834 3.37441 6.46071 2.81621 6.12093C2.23373 5.80542 3.18025 4.78609 3.18025 4.78609C3.18025 4.78609 2.20946 4.689 2.33081 3.91237C2.45216 3.16 3.66565 3.71821 3.66565 3.71821C3.66565 3.71821 3.5443 2.60181 4.39374 2.60181C5.24319 2.60181 4.90341 3.76675 4.90341 3.76675Z" fill="#F3DEDA"/>
<path d="M4.19633 5.02867C3.92937 5.02867 3.71094 4.81024 3.71094 4.519C3.71094 4.25203 3.92937 4.00934 4.19633 4.00934C4.48757 4.00934 4.706 4.25203 4.706 4.519C4.706 4.81024 4.48757 5.02867 4.19633 5.02867Z" fill="#F2FCA7"/>
</svg>
