<svg width="16" height="14" viewBox="0 0 16 14" fill="none" xmlns="http://www.w3.org/2000/svg">
<path d="M8.02389 13.6979C7.90981 13.7305 7.79572 13.7549 7.68164 13.7712C2.76798 14.7002 -0.678905 7.9775 1.05677 3.77278C2.84133 -0.505283 6.41045 1.27928 8.02389 1.37707C8.70838 1.32817 9.75955 0.985925 10.8841 0.937033C12.3508 0.863695 13.9643 1.32817 14.991 3.77278C16.7756 8.07528 13.1087 15.0424 8.02389 13.6979Z" fill="#ED1C24"/>
<path d="M8.02344 13.6979C9.85689 13.5512 12.3015 11.3755 13.206 8.46643C14.086 5.55735 12.7904 1.8171 10.8836 0.937043C12.3504 0.863705 13.9638 1.32818 14.9906 3.77279C16.7751 8.07529 13.1082 15.0424 8.02344 13.6979Z" fill="#D81322"/>
<path d="M5.60611 1.81714C4.79939 1.08376 2.18366 2.52608 1.76807 4.40842C1.37694 6.29077 2.30589 9.59098 3.11261 9.71321C3.91933 9.85989 4.50604 7.87976 4.18824 5.75296C3.87044 3.6017 6.6084 2.6972 5.60611 1.81714Z" fill="#F74350"/>
</svg>
