<svg width="81" height="121" viewBox="0 0 81 121" fill="none" xmlns="http://www.w3.org/2000/svg">
<path d="M16.3086 3.93681C17.9422 11.9905 23.4641 26.1261 32.4823 18.239C41.5006 10.3519 25.4574 5.41792 16.3086 3.93681Z" fill="#2AA0CD"/>
<path d="M32.4937 17.3571L17.4758 4.67145C25.4509 5.86639 38.7762 10.2913 32.4937 17.3571Z" fill="#50B9E0"/>
<path d="M28.8942 8.98657C30.424 9.78525 33.329 11.7134 32.7105 13.0366C32.092 14.3597 29.9086 10.8879 28.8942 8.98657Z" fill="#C2E5F5"/>
<path d="M12.309 30.9368C13.9426 38.9905 19.4645 53.1261 28.4827 45.239C37.5009 37.3519 21.4578 32.4179 12.309 30.9368Z" fill="#2AA0CD"/>
<path d="M28.494 44.3571L13.4762 31.6714C21.4513 32.8664 34.7766 37.2913 28.494 44.3571Z" fill="#50B9E0"/>
<path d="M24.8945 35.9866C26.4244 36.7853 29.3294 38.7135 28.7109 40.0366C28.0924 41.3598 25.9089 37.8879 24.8945 35.9866Z" fill="#C2E5F5"/>
<path d="M44.309 26.9368C45.9426 34.9905 51.4645 49.1261 60.4827 41.239C69.5009 33.3519 53.4578 28.4179 44.309 26.9368Z" fill="#2AA0CD"/>
<path d="M60.494 40.3571L45.4762 27.6714C53.4513 28.8664 66.7766 33.2913 60.494 40.3571Z" fill="#50B9E0"/>
<path d="M56.8945 31.9866C58.4244 32.7853 61.3294 34.7134 60.7109 36.0366C60.0924 37.3597 57.9089 33.8879 56.8945 31.9866Z" fill="#C2E5F5"/>
<path d="M52.3064 53.9958C51.1555 62.1325 51.6375 77.3006 62.7725 72.8797C73.9076 68.4588 60.4347 58.4484 52.3064 53.9958Z" fill="#2AA0CD"/>
<path d="M63.0778 72.0523L53.1611 55.0781C60.2787 58.8688 71.3601 67.4913 63.0778 72.0523Z" fill="#50B9E0"/>
<path d="M62.4817 62.9602C63.6568 64.2241 65.7507 67.012 64.7257 68.0525C63.7007 69.093 62.8026 65.0912 62.4817 62.9602Z" fill="#C2E5F5"/>
<path d="M22.0415 62.0046C20.8906 70.1413 21.3726 85.3094 32.5076 80.8885C43.6427 76.4675 30.1698 66.4572 22.0415 62.0046Z" fill="#2AA0CD"/>
<path d="M32.8129 80.061L22.8962 63.0869C30.0138 66.8776 41.0952 75.5001 32.8129 80.061Z" fill="#50B9E0"/>
<path d="M32.2168 70.969C33.3919 72.2329 35.4858 75.0208 34.4608 76.0613C33.4358 77.1018 32.5377 73.1 32.2168 70.969Z" fill="#C2E5F5"/>
<path d="M52.0423 89.0047C50.8824 97.1406 51.4054 112.312 62.7761 107.913C74.1469 103.514 60.358 93.4744 52.0423 89.0047Z" fill="#2AA0CD"/>
<path d="M63.0864 107.086L52.9178 90.089C60.1993 93.8947 71.5413 102.541 63.0864 107.086Z" fill="#50B9E0"/>
<path d="M62.459 97.9911C63.6624 99.2576 65.808 102.05 64.7625 103.089C63.717 104.127 62.7912 100.123 62.459 97.9911Z" fill="#C2E5F5"/>
</svg>
