<svg width="300" height="400" viewBox="0 0 300 400" fill="none" xmlns="http://www.w3.org/2000/svg">
<path fill-rule="evenodd" clip-rule="evenodd" d="M146.903 369.766C146.784 367.503 149.073 362.358 152.605 361.31C155.857 360.345 157.814 360.22 159.286 360.126C159.813 360.092 160.278 360.063 160.718 360C159.884 363.096 155.303 370.052 146.903 369.766ZM147.379 368.218C147.379 367.979 148.928 363.335 152.262 361.786C152.637 361.666 152.978 361.557 153.288 361.458C151.312 362.471 148.963 364.503 147.379 368.218Z" fill="#ACD737"/>
<path d="M152.262 361.786C148.928 363.335 147.379 367.979 147.379 368.218C148.963 364.503 151.312 362.471 153.288 361.458C152.978 361.557 152.637 361.666 152.262 361.786Z" fill="white"/>
<path d="M154.849 364.574C151.035 367.848 147.962 369.389 146.902 369.75C155.607 370.135 159.739 363.41 160.717 360C160.351 360.16 158.664 361.3 154.849 364.574Z" fill="#9BC13D"/>
<path d="M146.919 366.575C146.804 364.305 147.312 389.471 147.627 399.511C150.931 400.811 148.335 397.561 147.981 385.21C147.509 375.026 147.391 375.893 146.919 366.575Z" fill="#9BC13D"/>
<path d="M147.619 381.437L148.254 398.825H148.572L147.619 381.437Z" fill="#AAD542"/>
<path d="M146.903 369.683C146.67 366.759 144.853 361.447 139.449 363.595C138.517 363.953 141.545 370.578 146.903 369.683Z" fill="#9BC13D"/>
<path d="M146.903 369.528L139.281 363.707C139.829 363.344 141.439 362.762 143.503 363.344C145.567 363.926 146.63 367.709 146.903 369.528Z" fill="#A6CE39"/>
</svg>
