<svg width="15" height="15" viewBox="0 0 15 15" fill="none" xmlns="http://www.w3.org/2000/svg">
<path d="M4.82534 4.8268C4.82534 4.8268 3.78175 1.18632 6.37862 0.579577C8.97549 -0.0271686 9.58223 4.38994 9.58223 4.38994C9.58223 4.38994 11.9849 3.00656 13.7081 3.95308C15.4555 4.89961 13.6353 7.66637 11.7422 8.10322C11.7422 8.10322 14.4847 10.2632 13.2955 12.3504C12.082 14.4134 8.44155 11.0399 8.44155 11.0399C8.44155 11.0399 8.10177 14.5104 5.33501 14.0736C2.56825 13.6367 4.60692 9.21963 4.60692 9.21963C4.60692 9.21963 0.578125 9.65649 0.578125 6.64703C0.578125 3.61331 4.82534 4.8268 4.82534 4.8268Z" fill="#D8EEEC"/>
<path d="M6.18959 6.08883C6.18959 6.08883 5.65566 4.29286 6.94196 4.00162C8.22826 3.68611 8.5195 5.8704 8.5195 5.8704C8.5195 5.8704 9.70872 5.19085 10.5824 5.65197C11.4319 6.13737 10.5339 7.49648 9.58737 7.71491C9.58737 7.71491 10.9465 8.78278 10.364 9.80211C9.75726 10.8214 7.9613 9.14682 7.9613 9.14682C7.9613 9.14682 7.7914 10.87 6.43229 10.6516C5.07318 10.4331 6.06825 8.24884 6.06825 8.24884C6.06825 8.24884 4.07812 8.46727 4.07812 6.98681C4.07812 5.48208 6.18959 6.08883 6.18959 6.08883Z" fill="#F3DEDA"/>
<path d="M8.39362 7.32657C8.39362 7.81197 7.98103 8.20029 7.49563 8.20029C7.01024 8.20029 6.59766 7.81197 6.59766 7.32657C6.59766 6.81691 7.01024 6.42859 7.49563 6.42859C7.98103 6.42859 8.39362 6.81691 8.39362 7.32657Z" fill="#F2FCA7"/>
</svg>
