<svg width="18" height="16" viewBox="0 0 18 16" fill="none" xmlns="http://www.w3.org/2000/svg">
<path d="M9.29058 15.1684C9.1602 15.2009 9.02983 15.2335 8.89945 15.2661C8.89945 15.2661 8.89131 15.2661 8.87501 15.2661C3.3502 16.3173 -0.536725 8.73904 1.41896 3.9965C3.44798 -0.819372 7.48157 1.1852 9.29058 1.28299C10.0484 1.2341 11.2463 0.842959 12.493 0.794067C14.1798 0.720728 15.9888 1.2341 17.1378 3.9965C19.1423 8.83682 15.011 16.684 9.29058 15.1684Z" fill="#ED1C24"/>
<path d="M9.29297 15.1683C11.3464 15.0216 14.1089 12.5526 15.1111 9.27681C16.1379 6.02548 14.6711 1.79631 12.4954 0.794022C14.1822 0.720683 15.9912 1.23405 17.1402 3.99646C19.1447 8.83678 15.0133 16.684 9.29297 15.1683Z" fill="#D81322"/>
<path d="M6.55146 1.79635C5.62251 0.965187 2.68898 2.60307 2.22451 4.70543C1.78448 6.83224 2.83566 10.548 3.74016 10.6947C4.64467 10.8414 5.30471 8.64125 4.96247 6.22109C4.59578 3.80093 7.67598 2.7742 6.55146 1.79635Z" fill="#F74350"/>
</svg>
