<svg width="17" height="15" viewBox="0 0 17 15" fill="none" xmlns="http://www.w3.org/2000/svg">
<path d="M8.65527 14.2863C8.52489 14.3189 8.3945 14.3515 8.26412 14.384C2.81265 15.4352 -1.00094 7.95473 0.930301 3.28554C2.91043 -1.457 6.8707 0.523135 8.65527 0.620919C9.41309 0.572027 10.5865 0.18089 11.8088 0.131998C13.4711 0.0586599 15.2557 0.572025 16.3802 3.28554C18.3603 8.05252 14.3023 15.7775 8.65527 14.2863Z" fill="#ED1C24"/>
<path d="M8.65625 14.2863C10.6853 14.1396 13.3988 11.7194 14.4011 8.49255C15.4034 5.26567 13.961 1.10984 11.8098 0.131998C13.4721 0.0586599 15.2567 0.572025 16.3812 3.28554C18.3613 8.05252 14.3033 15.7775 8.65625 14.2863Z" fill="#D81322"/>
<path d="M5.99095 1.10985C5.062 0.303131 2.17737 1.91657 1.71289 3.99449C1.27286 6.0724 2.32404 9.73931 3.2041 9.88599C4.1086 10.0327 4.7442 7.85696 4.40196 5.48569C4.05971 3.08998 7.06658 2.08769 5.99095 1.10985Z" fill="#F74350"/>
</svg>
