<svg width="8" height="9" viewBox="0 0 8 9" fill="none" xmlns="http://www.w3.org/2000/svg">
<path d="M5.45302 3.10215C5.45302 3.10215 7.49168 2.51967 7.83146 3.97586C8.17124 5.43204 5.69572 5.79609 5.69572 5.79609C5.69572 5.79609 6.47235 7.15521 5.93842 8.126C5.40448 9.0968 3.85121 8.07745 3.60851 7.00958C3.60851 7.00958 2.39502 8.56286 1.23007 7.8833C0.0651174 7.20375 1.95816 5.14082 1.95816 5.14082C1.95816 5.14082 0.0165778 4.94666 0.259276 3.39339C0.501974 1.84012 2.9775 2.9808 2.9775 2.9808C2.9775 2.9808 2.7348 0.723709 4.43369 0.723709C6.13257 0.723709 5.45302 3.10215 5.45302 3.10215Z" fill="#D8EEEC"/>
<path d="M4.74715 3.8788C4.74715 3.8788 5.74222 3.58756 5.91211 4.31566C6.082 5.01948 4.8685 5.18936 4.8685 5.18936C4.8685 5.18936 5.25682 5.86893 4.98985 6.35433C4.72288 6.81545 3.94625 6.33004 3.8249 5.79611C3.8249 5.79611 3.21816 6.57275 2.65996 6.23298C2.07748 5.8932 3.024 4.87386 3.024 4.87386C3.024 4.87386 2.05321 4.77678 2.17456 4.02441C2.29591 3.24778 3.5094 3.806 3.5094 3.806C3.5094 3.806 3.38805 2.68958 4.23749 2.68958C5.08694 2.68958 4.74715 3.8788 4.74715 3.8788Z" fill="#F3DEDA"/>
<path d="M4.04399 5.11646C3.77702 5.11646 3.55859 4.89803 3.55859 4.6068C3.55859 4.33983 3.77702 4.1214 4.04399 4.1214C4.33523 4.1214 4.55366 4.33983 4.55366 4.6068C4.55366 4.89803 4.33523 5.11646 4.04399 5.11646Z" fill="#F2FCA7"/>
</svg>
