<svg width="23" height="22" viewBox="0 0 23 22" fill="none" xmlns="http://www.w3.org/2000/svg">
<path d="M15.708 14.8598C15.708 14.8598 17.4554 20.3691 13.4994 21.4127C9.54342 22.4563 8.42701 15.7093 8.42701 15.7093C8.42701 15.7093 4.78654 17.9421 2.09259 16.5587C-0.60136 15.1511 2.06832 10.8553 4.95642 10.103C4.95642 10.103 0.636398 6.89934 2.40809 3.67145C4.17979 0.443567 9.88319 5.46741 9.88319 5.46741C9.88319 5.46741 10.2715 0.152317 14.5187 0.686253C18.7902 1.24446 15.8293 8.08855 15.8293 8.08855C15.8293 8.08855 21.9938 7.26338 22.1152 11.8989C22.2365 16.5344 15.708 14.8598 15.708 14.8598Z" fill="#D8EEEC"/>
<path d="M13.5701 12.9668C13.5701 12.9668 14.4196 15.7093 12.478 16.2189C10.5364 16.7286 9.97818 13.4037 9.97818 13.4037C9.97818 13.4037 8.18221 14.4958 6.84737 13.8162C5.51253 13.1367 6.84738 11.0009 8.2793 10.6369C8.2793 10.6369 6.11928 9.05936 6.993 7.45755C7.86671 5.85574 10.682 8.33126 10.682 8.33126C10.682 8.33126 10.8762 5.71013 12.9876 5.9771C15.0991 6.24407 13.6429 9.64184 13.6429 9.64184C13.6429 9.64184 16.6767 9.22925 16.7495 11.5106C16.798 13.8162 13.5701 12.9668 13.5701 12.9668Z" fill="#F3DEDA"/>
<path d="M10.1257 11.1707C10.1014 10.4183 10.7082 9.78733 11.4605 9.76306C12.2129 9.76306 12.8439 10.3455 12.8682 11.0979C12.8682 11.8503 12.2857 12.4813 11.5334 12.5055C10.781 12.5298 10.15 11.9231 10.1257 11.1707Z" fill="#F2FCA7"/>
</svg>
