<svg width="15" height="13" viewBox="0 0 15 13" fill="none" xmlns="http://www.w3.org/2000/svg">
<path d="M7.48661 12.4365C7.37253 12.4528 7.25845 12.4772 7.14437 12.5098C2.40184 13.4143 -0.947277 6.88722 0.739501 2.82917C2.47517 -1.30221 5.92207 0.409015 7.48661 0.5068C8.14666 0.457907 9.14894 0.140106 10.249 0.0912137C11.6669 0.0178755 13.2314 0.457908 14.2093 2.82917C15.945 6.985 12.4003 13.7321 7.48661 12.4365Z" fill="#ED1C24"/>
<path d="M7.48438 12.4365C9.24449 12.2898 11.6158 10.1874 12.4958 7.37613C13.3514 4.56483 12.1047 0.946818 10.2468 0.0912063C11.6646 0.0178682 13.2292 0.4579 14.207 2.82917C15.9427 6.985 12.398 13.7321 7.48438 12.4365Z" fill="#D81322"/>
<path d="M5.142 0.94679C4.35973 0.213408 1.81733 1.63128 1.42619 3.44029C1.03506 5.2493 1.93957 8.45173 2.72184 8.57396C3.50411 8.72064 4.06637 6.81384 3.77302 4.73593C3.45522 2.65801 6.0954 1.77796 5.142 0.94679Z" fill="#F74350"/>
</svg>
