<svg width="19" height="16" viewBox="0 0 19 16" fill="none" xmlns="http://www.w3.org/2000/svg">
<path d="M9.24461 15.6675C9.11423 15.7001 8.97571 15.7327 8.82904 15.7653C2.8642 16.8898 -1.34053 8.70037 0.786276 3.61559C2.96198 -1.61586 7.28892 0.559836 9.24461 0.682066C10.1002 0.633174 11.3714 0.193144 12.716 0.144252C14.525 0.0709139 16.4806 0.633174 17.7274 3.61559C19.9031 8.8226 15.4539 17.2809 9.24461 15.6675Z" fill="#ED1C24"/>
<path d="M9.24609 15.6675C11.4707 15.4964 14.4776 12.8318 15.5532 9.31152C16.6288 5.76685 15.0643 1.21988 12.7174 0.144254C14.5264 0.0709158 16.4821 0.633176 17.7289 3.61559C19.9046 8.8226 15.4554 17.2809 9.24609 15.6675Z" fill="#D81322"/>
<path d="M6.31291 1.21988C5.31062 0.315378 2.13264 2.07549 1.64371 4.37342C1.15479 6.6469 2.30376 10.6561 3.2816 10.8272C4.25945 10.9983 4.96838 8.60259 4.57724 5.98686C4.21055 3.39558 7.53521 2.29551 6.31291 1.21988Z" fill="#F74350"/>
</svg>
