<svg width="21" height="19" viewBox="0 0 21 19" fill="none" xmlns="http://www.w3.org/2000/svg">
<path d="M10.5833 18.4595C10.4203 18.5084 10.2573 18.5491 10.0943 18.5817C3.24944 19.9018 -1.59088 10.4901 0.853731 4.62303C3.34723 -1.34181 8.33422 1.15169 10.5833 1.27392C11.5367 1.22503 13.0034 0.736105 14.568 0.662767C16.6459 0.564983 18.8705 1.22503 20.3128 4.62303C22.8063 10.6123 17.6971 20.3418 10.5833 18.4595Z" fill="#ED1C24"/>
<path d="M10.582 18.4595C13.1244 18.2884 16.5713 15.2326 17.8181 11.1746C19.0648 7.11653 17.2558 1.88507 14.5667 0.662767C16.6447 0.564983 18.8693 1.22503 20.3116 4.62303C22.8051 10.6123 17.6958 20.3418 10.582 18.4595Z" fill="#D81322"/>
<path d="M7.21037 1.88511C6.0614 0.858376 2.41894 2.8874 1.85668 5.50312C1.29442 8.11885 2.6145 12.7392 3.71457 12.9103C4.83909 13.1059 5.64582 10.3679 5.23023 7.38547C4.7902 4.37861 8.60379 3.13186 7.21037 1.88511Z" fill="#F74350"/>
</svg>
