<svg width="18" height="18" viewBox="0 0 18 18" fill="none" xmlns="http://www.w3.org/2000/svg">
<path d="M12.4538 5.54815C12.4538 5.54815 16.9923 4.26185 17.7447 7.48973C18.497 10.7419 12.9878 11.4943 12.9878 11.4943C12.9878 11.4943 14.7109 14.528 13.5217 16.688C12.3325 18.848 8.88618 16.5666 8.35225 14.1882C8.35225 14.1882 5.63403 17.6588 3.06143 16.1298C0.464558 14.6251 4.66324 10.0866 4.66324 10.0866C4.66324 10.0866 0.36748 9.64974 0.901416 6.20343C1.43535 2.75711 6.9446 5.30545 6.9446 5.30545C6.9446 5.30545 6.41066 0.257324 10.1725 0.257324C13.9586 0.257324 12.4538 5.54815 12.4538 5.54815Z" fill="#D8EEEC"/>
<path d="M10.8749 7.24702C10.8749 7.24702 13.1078 6.616 13.4718 8.21781C13.8601 9.81962 11.1419 10.1837 11.1419 10.1837C11.1419 10.1837 11.9914 11.6884 11.4089 12.732C10.8021 13.7999 9.10324 12.6835 8.83628 11.5185C8.83628 11.5185 7.50144 13.2174 6.23941 12.465C4.95311 11.7369 7.04031 9.47984 7.04031 9.47984C7.04031 9.47984 4.90456 9.28568 5.17153 7.56252C5.4385 5.86364 8.15672 7.12567 8.15672 7.12567C8.15672 7.12567 7.88976 4.65015 9.75853 4.65015C11.603 4.65015 10.8749 7.24702 10.8749 7.24702Z" fill="#F3DEDA"/>
<path d="M9.31954 10.0139C8.71279 10.0139 8.20312 9.52845 8.20312 8.89744C8.20312 8.29069 8.71279 7.8053 9.31954 7.8053C9.95055 7.8053 10.436 8.29069 10.436 8.89744C10.436 9.52845 9.95055 10.0139 9.31954 10.0139Z" fill="#F2FCA7"/>
</svg>
