<svg width="9" height="9" viewBox="0 0 9 9" fill="none" xmlns="http://www.w3.org/2000/svg">
<path d="M5.86401 2.88477C5.86401 2.88477 7.90267 2.30229 8.24244 3.75848C8.58222 5.21467 6.1067 5.55445 6.1067 5.55445C6.1067 5.55445 6.88334 6.91356 6.3494 7.88435C5.81547 8.85514 4.23792 7.83582 3.99523 6.76794C3.99523 6.76794 2.78174 8.32121 1.61679 7.64165C0.451836 6.9621 2.34488 4.92343 2.34488 4.92343C2.34488 4.92343 0.403297 4.72927 0.645995 3.176C0.888693 1.62273 3.36422 2.76342 3.36422 2.76342C3.36422 2.76342 3.12152 0.482056 4.82041 0.482056C6.54356 0.482056 5.86401 2.88477 5.86401 2.88477Z" fill="#D8EEEC"/>
<path d="M5.13779 3.63712C5.13779 3.63712 6.15712 3.34588 6.32701 4.07397C6.4969 4.80206 5.25914 4.97196 5.25914 4.97196C5.25914 4.97196 5.64746 5.62724 5.38049 6.11264C5.11352 6.59804 4.36116 6.08837 4.23981 5.55444C4.23981 5.55444 3.63306 6.33107 3.05058 5.99129C2.46811 5.65151 3.41463 4.65645 3.41463 4.65645C3.41463 4.65645 2.44384 4.55936 2.56518 3.78273C2.68653 3.00609 3.9243 3.58857 3.9243 3.58857C3.9243 3.58857 3.80295 2.47217 4.62812 2.47217C5.47756 2.47217 5.13779 3.63712 5.13779 3.63712Z" fill="#F3DEDA"/>
<path d="M4.45499 4.89913C4.16375 4.89913 3.94531 4.65642 3.94531 4.38945C3.94531 4.09821 4.16375 3.87979 4.45499 3.87979C4.72196 3.87979 4.94038 4.09821 4.94038 4.38945C4.94038 4.65642 4.72196 4.89913 4.45499 4.89913Z" fill="#F2FCA7"/>
</svg>
