<svg width="12" height="12" viewBox="0 0 12 12" fill="none" xmlns="http://www.w3.org/2000/svg">
<path d="M7.91111 3.82259C7.91111 3.82259 10.9448 2.94888 11.4545 5.10889C11.9642 7.29317 8.27516 7.80284 8.27516 7.80284C8.27516 7.80284 9.44011 9.81723 8.63921 11.2734C7.8383 12.7296 5.5084 11.2006 5.14435 9.62308C5.14435 9.62308 3.34839 11.9287 1.60096 10.9094C-0.146464 9.89004 2.6931 6.85632 2.6931 6.85632C2.6931 6.85632 -0.219274 6.56508 0.144773 4.25945C0.50882 1.92955 4.2221 3.6527 4.2221 3.6527C4.2221 3.6527 3.85806 0.254929 6.38212 0.254929C8.93045 0.254929 7.91111 3.82259 7.91111 3.82259Z" fill="#D8EEEC"/>
<path d="M6.84082 4.96339C6.84082 4.96339 8.34555 4.52653 8.58825 5.59441C8.85522 6.66228 7.03499 6.92925 7.03499 6.92925C7.03499 6.92925 7.59318 7.92431 7.20487 8.62813C6.81655 9.35623 5.6516 8.60386 5.48172 7.80296C5.48172 7.80296 4.58373 8.96791 3.73429 8.45824C2.88484 7.94858 4.26823 6.44385 4.26823 6.44385C4.26823 6.44385 2.8363 6.3225 3.00619 5.15755C3.20035 4.01687 5.02058 4.86631 5.02058 4.86631C5.02058 4.86631 4.8507 3.1917 6.08846 3.1917C7.35049 3.1917 6.84082 4.96339 6.84082 4.96339Z" fill="#F3DEDA"/>
<path d="M5.82269 6.80782C5.4101 6.80782 5.07031 6.46804 5.07031 6.05545C5.07031 5.64286 5.4101 5.30309 5.82269 5.30309C6.23527 5.30309 6.55078 5.64286 6.55078 6.05545C6.55078 6.46804 6.23527 6.80782 5.82269 6.80782Z" fill="#F2FCA7"/>
</svg>
