<svg width="18" height="18" viewBox="0 0 18 18" fill="none" xmlns="http://www.w3.org/2000/svg">
<path d="M11.8872 5.45891C11.8872 5.45891 16.4257 4.14834 17.178 7.4005C17.9304 10.6284 12.4454 11.3807 12.4454 11.3807C12.4454 11.3807 14.1686 14.4145 12.9793 16.5745C11.7901 18.7345 8.34381 16.4531 7.78561 14.0747C7.78561 14.0747 5.09166 17.5453 2.49479 16.0406C-0.077815 14.5116 4.12086 9.9731 4.12086 9.9731C4.12086 9.9731 -0.199164 9.56052 0.334772 6.08993C0.892977 2.64362 6.40223 5.19195 6.40223 5.19195C6.40223 5.19195 5.84402 0.168091 9.63011 0.168091C13.4162 0.168091 11.8872 5.45891 11.8872 5.45891Z" fill="#D8EEEC"/>
<path d="M10.3124 7.13354C10.3124 7.13354 12.5695 6.50252 12.9336 8.10433C13.2976 9.70614 10.5794 10.0702 10.5794 10.0702C10.5794 10.0702 11.4288 11.5749 10.8464 12.6428C10.2639 13.7107 8.56501 12.57 8.29804 11.405C8.29804 11.405 6.96321 13.1039 5.67691 12.3758C4.41488 11.6235 6.47781 9.39063 6.47781 9.39063C6.47781 9.39063 4.34206 9.1722 4.60903 7.47332C4.876 5.75016 7.59422 7.01219 7.59422 7.01219C7.59422 7.01219 7.32725 4.53667 9.19603 4.53667C11.0648 4.53667 10.3124 7.13354 10.3124 7.13354Z" fill="#F3DEDA"/>
<path d="M8.78047 9.90033C8.17373 9.90033 7.66406 9.41493 7.66406 8.80819C7.66406 8.17717 8.17373 7.69177 8.78047 7.69177C9.38722 7.69177 9.89688 8.17717 9.89688 8.80819C9.89688 9.41493 9.38722 9.90033 8.78047 9.90033Z" fill="#F2FCA7"/>
</svg>
