<svg width="22" height="19" viewBox="0 0 22 19" fill="none" xmlns="http://www.w3.org/2000/svg">
<path d="M11.2844 18.3204C11.1214 18.353 10.9585 18.3856 10.7955 18.4182C3.92616 19.7382 -0.889714 10.3265 1.55489 4.4839C4.04839 -1.50538 9.03538 0.988109 11.2844 1.11034C12.2378 1.06145 13.7046 0.572526 15.2691 0.499188C17.3471 0.401403 19.5716 1.06145 20.9895 4.4839C23.483 10.4487 18.3738 20.1783 11.2844 18.3204Z" fill="#ED1C24"/>
<path d="M11.2852 18.3204C13.8275 18.1248 17.25 15.069 18.4967 11.011C19.7435 6.97739 17.9345 1.74594 15.2699 0.499188C17.3478 0.401403 19.5724 1.06145 20.9902 4.4839C23.4837 10.4487 18.3745 20.1783 11.2852 18.3204Z" fill="#D81322"/>
<path d="M7.91125 1.74593C6.76229 0.694753 3.11983 2.72378 2.55757 5.33951C1.99531 7.95524 3.29095 12.5755 4.41547 12.7711C5.53999 12.9422 6.3467 10.2043 5.90667 7.22184C5.49109 4.23942 9.28023 2.96824 7.91125 1.74593Z" fill="#F74350"/>
</svg>
