<svg width="287" height="451" viewBox="0 0 287 451" fill="none" xmlns="http://www.w3.org/2000/svg">
<path d="M138.468 67.6027C138.016 67.7319 137.564 67.8288 137.112 67.8934C116.864 71.7686 102.719 44.0608 109.888 26.9129C117.251 9.28069 131.88 16.6436 138.468 17.0311C141.375 16.8374 145.637 15.3842 150.191 15.1904C156.294 14.8998 162.979 16.8374 167.145 26.9129C174.411 44.5452 159.394 73.1249 138.468 67.6027Z" fill="#ED1C24"/>
<path d="M138.465 67.6027C146.022 67.0214 156.097 58.1084 159.779 46.1921C163.46 34.1789 158.132 18.775 150.187 15.1904C156.291 14.8997 162.976 16.8373 167.141 26.9129C174.408 44.5452 159.391 73.1249 138.465 67.6027Z" fill="#D81322"/>
<path d="M128.589 18.7751C125.199 15.7718 114.445 21.7784 112.798 29.432C111.151 37.1824 115.026 50.7457 118.32 51.327C121.614 51.8114 124.036 43.7703 122.777 34.9542C121.42 26.1381 132.658 22.4566 128.589 18.7751Z" fill="#F74350"/>
<path d="M139.011 21.6621C137.437 21.6621 136.16 20.4341 136.16 18.9184C136.16 12.5692 138.102 6.44512 141.777 1.20857C142.658 -0.0471139 144.43 -0.377888 145.735 0.470031C147.04 1.31795 147.384 3.02337 146.503 4.27906C143.467 8.60523 141.862 13.6676 141.862 18.9184C141.863 20.4335 140.586 21.6621 139.011 21.6621Z" fill="#683520"/>
<path d="M171.468 113.603C171.016 113.732 170.564 113.829 170.112 113.893C149.864 117.769 135.719 90.0608 142.888 72.9129C150.251 55.2807 164.88 62.6436 171.468 63.0311C174.375 62.8374 178.637 61.3842 183.191 61.1904C189.294 60.8998 195.979 62.8374 200.145 72.9129C207.411 90.5452 192.394 119.125 171.468 113.603Z" fill="#ED1C24"/>
<path d="M171.465 113.603C179.022 113.021 189.097 104.108 192.779 92.1921C196.46 80.1789 191.132 64.775 183.187 61.1904C189.291 60.8997 195.976 62.8373 200.141 72.9129C207.408 90.5452 192.391 119.125 171.465 113.603Z" fill="#D81322"/>
<path d="M161.589 64.7751C158.199 61.7718 147.445 67.7784 145.798 75.432C144.151 83.1824 148.026 96.7457 151.32 97.327C154.614 97.8114 157.036 89.7703 155.777 80.9542C154.42 72.1381 165.658 68.4566 161.589 64.7751Z" fill="#F74350"/>
<path d="M172.011 67.6621C170.437 67.6621 169.16 66.4341 169.16 64.9184C169.16 58.5692 171.102 52.4451 174.777 47.2086C175.658 45.9529 177.43 45.6221 178.735 46.47C180.04 47.3179 180.384 49.0234 179.503 50.2791C176.467 54.6052 174.862 59.6676 174.862 64.9184C174.863 66.4335 173.586 67.6621 172.011 67.6621Z" fill="#683520"/>
<path d="M110.468 117.603C110.016 117.732 109.564 117.829 109.112 117.893C88.8638 121.769 74.7192 94.0608 81.8884 76.9129C89.2513 59.2807 103.88 66.6436 110.468 67.0311C113.375 66.8374 117.637 65.3842 122.191 65.1904C128.294 64.8998 134.979 66.8374 139.145 76.9129C146.411 94.5452 131.394 123.125 110.468 117.603Z" fill="#ED1C24"/>
<path d="M110.465 117.603C118.022 117.021 128.097 108.108 131.779 96.1921C135.46 84.1789 130.132 68.775 122.187 65.1904C128.291 64.8997 134.976 66.8373 139.141 76.9129C146.408 94.5452 131.391 123.125 110.465 117.603Z" fill="#D81322"/>
<path d="M100.589 68.7751C97.1987 65.7718 86.4449 71.7784 84.7979 79.432C83.1509 87.1824 87.0262 100.746 90.3201 101.327C93.614 101.811 96.0361 93.7703 94.7766 84.9542C93.4203 76.1381 104.658 72.4566 100.589 68.7751Z" fill="#F74350"/>
<path d="M111.011 71.6621C109.437 71.6621 108.16 70.4341 108.16 68.9184C108.16 62.5692 110.102 56.4451 113.777 51.2086C114.658 49.9529 116.43 49.6221 117.735 50.47C119.04 51.3179 119.384 53.0234 118.503 54.2791C115.467 58.6052 113.862 63.6676 113.862 68.9184C113.863 70.4335 112.586 71.6621 111.011 71.6621Z" fill="#683520"/>
<path d="M140.468 163.603C140.016 163.732 139.564 163.829 139.112 163.893C118.864 167.769 104.719 140.061 111.888 122.913C119.251 105.281 133.88 112.644 140.468 113.031C143.375 112.837 147.637 111.384 152.191 111.19C158.294 110.9 164.979 112.837 169.145 122.913C176.411 140.545 161.394 169.125 140.468 163.603Z" fill="#ED1C24"/>
<path d="M140.465 163.603C148.022 163.021 158.097 154.108 161.779 142.192C165.46 130.179 160.132 114.775 152.187 111.19C158.291 110.9 164.976 112.837 169.141 122.913C176.408 140.545 161.391 169.125 140.465 163.603Z" fill="#D81322"/>
<path d="M130.589 114.775C127.199 111.772 116.445 117.778 114.798 125.432C113.151 133.182 117.026 146.746 120.32 147.327C123.614 147.811 126.036 139.77 124.777 130.954C123.42 122.138 134.658 118.457 130.589 114.775Z" fill="#F74350"/>
<path d="M141.011 117.662C139.437 117.662 138.16 116.434 138.16 114.918C138.16 108.569 140.102 102.445 143.777 97.2086C144.658 95.9529 146.43 95.6221 147.735 96.47C149.04 97.3179 149.384 99.0234 148.503 100.279C145.467 104.605 143.862 109.668 143.862 114.918C143.863 116.433 142.586 117.662 141.011 117.662Z" fill="#683520"/>
<path d="M84.4681 165.603C84.016 165.732 83.5639 165.829 83.1118 165.893C62.8638 169.769 48.7192 142.061 55.8884 124.913C63.2513 107.281 77.8802 114.644 84.4681 115.031C87.3745 114.837 91.6373 113.384 96.1907 113.19C102.294 112.9 108.979 114.837 113.145 124.913C120.411 142.545 105.394 171.125 84.4681 165.603Z" fill="#ED1C24"/>
<path d="M84.4648 165.603C92.0215 165.021 102.097 156.108 105.779 144.192C109.46 132.179 104.132 116.775 96.1874 113.19C102.291 112.9 108.976 114.837 113.141 124.913C120.408 142.545 105.391 171.125 84.4648 165.603Z" fill="#D81322"/>
<path d="M74.5895 116.775C71.1987 113.772 60.4449 119.778 58.7979 127.432C57.1509 135.182 61.0262 148.746 64.3201 149.327C67.614 149.811 70.0361 141.77 68.7766 132.954C67.4203 124.138 78.6585 120.457 74.5895 116.775Z" fill="#F74350"/>
<path d="M85.0114 119.662C83.4366 119.662 82.1602 118.434 82.1602 116.918C82.1602 110.569 84.1024 104.445 87.7771 99.2086C88.6582 97.9529 90.4301 97.6221 91.7354 98.47C93.0403 99.3179 93.3837 101.023 92.5029 102.279C89.4669 106.605 87.8619 111.668 87.8619 116.918C87.8626 118.433 86.5862 119.662 85.0114 119.662Z" fill="#683520"/>
<path d="M199.468 163.603C199.016 163.732 198.564 163.829 198.112 163.893C177.864 167.769 163.719 140.061 170.888 122.913C178.251 105.281 192.88 112.644 199.468 113.031C202.375 112.837 206.637 111.384 211.191 111.19C217.294 110.9 223.979 112.837 228.145 122.913C235.411 140.545 220.394 169.125 199.468 163.603Z" fill="#ED1C24"/>
<path d="M199.465 163.603C207.022 163.021 217.097 154.108 220.779 142.192C224.46 130.179 219.132 114.775 211.187 111.19C217.291 110.9 223.976 112.837 228.141 122.913C235.408 140.545 220.391 169.125 199.465 163.603Z" fill="#D81322"/>
<path d="M189.589 114.775C186.199 111.772 175.445 117.778 173.798 125.432C172.151 133.182 176.026 146.746 179.32 147.327C182.614 147.811 185.036 139.77 183.777 130.954C182.42 122.138 193.658 118.457 189.589 114.775Z" fill="#F74350"/>
<path d="M200.011 117.662C198.437 117.662 197.16 116.434 197.16 114.918C197.16 108.569 199.102 102.445 202.777 97.2086C203.658 95.9529 205.43 95.6221 206.735 96.47C208.04 97.3179 208.384 99.0234 207.503 100.279C204.467 104.605 202.862 109.668 202.862 114.918C202.863 116.433 201.586 117.662 200.011 117.662Z" fill="#683520"/>
<path d="M225.468 211.603C225.016 211.732 224.564 211.829 224.112 211.893C203.864 215.769 189.719 188.061 196.888 170.913C204.251 153.281 218.88 160.644 225.468 161.031C228.375 160.837 232.637 159.384 237.191 159.19C243.294 158.9 249.979 160.837 254.145 170.913C261.411 188.545 246.394 217.125 225.468 211.603Z" fill="#ED1C24"/>
<path d="M225.465 211.603C233.022 211.021 243.097 202.108 246.779 190.192C250.46 178.179 245.132 162.775 237.187 159.19C243.291 158.9 249.976 160.837 254.141 170.913C261.408 188.545 246.391 217.125 225.465 211.603Z" fill="#D81322"/>
<path d="M215.589 162.775C212.199 159.772 201.445 165.778 199.798 173.432C198.151 181.182 202.026 194.746 205.32 195.327C208.614 195.811 211.036 187.77 209.777 178.954C208.42 170.138 219.658 166.457 215.589 162.775Z" fill="#F74350"/>
<path d="M226.011 165.662C224.437 165.662 223.16 164.434 223.16 162.918C223.16 156.569 225.102 150.445 228.777 145.209C229.658 143.953 231.43 143.622 232.735 144.47C234.04 145.318 234.384 147.023 233.503 148.279C230.467 152.605 228.862 157.668 228.862 162.918C228.863 164.433 227.586 165.662 226.011 165.662Z" fill="#683520"/>
<path d="M172.468 211.603C172.016 211.732 171.564 211.829 171.112 211.893C150.864 215.769 136.719 188.061 143.888 170.913C151.251 153.281 165.88 160.644 172.468 161.031C175.375 160.837 179.637 159.384 184.191 159.19C190.294 158.9 196.979 160.837 201.145 170.913C208.411 188.545 193.394 217.125 172.468 211.603Z" fill="#ED1C24"/>
<path d="M172.465 211.603C180.022 211.021 190.097 202.108 193.779 190.192C197.46 178.179 192.132 162.775 184.187 159.19C190.291 158.9 196.976 160.837 201.141 170.913C208.408 188.545 193.391 217.125 172.465 211.603Z" fill="#D81322"/>
<path d="M162.589 162.775C159.199 159.772 148.445 165.778 146.798 173.432C145.151 181.182 149.026 194.746 152.32 195.327C155.614 195.811 158.036 187.77 156.777 178.954C155.42 170.138 166.658 166.457 162.589 162.775Z" fill="#F74350"/>
<path d="M173.011 165.662C171.437 165.662 170.16 164.434 170.16 162.918C170.16 156.569 172.102 150.445 175.777 145.209C176.658 143.953 178.43 143.622 179.735 144.47C181.04 145.318 181.384 147.023 180.503 148.279C177.467 152.605 175.862 157.668 175.862 162.918C175.863 164.433 174.586 165.662 173.011 165.662Z" fill="#683520"/>
<path d="M114.468 211.603C114.016 211.732 113.564 211.829 113.112 211.893C92.8638 215.769 78.7192 188.061 85.8884 170.913C93.2513 153.281 107.88 160.644 114.468 161.031C117.375 160.837 121.637 159.384 126.191 159.19C132.294 158.9 138.979 160.837 143.145 170.913C150.411 188.545 135.394 217.125 114.468 211.603Z" fill="#ED1C24"/>
<path d="M114.465 211.603C122.022 211.021 132.097 202.108 135.779 190.192C139.46 178.179 134.132 162.775 126.187 159.19C132.291 158.9 138.976 160.837 143.141 170.913C150.408 188.545 135.391 217.125 114.465 211.603Z" fill="#D81322"/>
<path d="M104.589 162.775C101.199 159.772 90.4449 165.778 88.7979 173.432C87.1509 181.182 91.0262 194.746 94.3201 195.327C97.614 195.811 100.036 187.77 98.7766 178.954C97.4203 170.138 108.658 166.457 104.589 162.775Z" fill="#F74350"/>
<path d="M115.011 165.662C113.437 165.662 112.16 164.434 112.16 162.918C112.16 156.569 114.102 150.445 117.777 145.209C118.658 143.953 120.43 143.622 121.735 144.47C123.04 145.318 123.384 147.023 122.503 148.279C119.467 152.605 117.862 157.668 117.862 162.918C117.863 164.433 116.586 165.662 115.011 165.662Z" fill="#683520"/>
<path d="M60.4681 211.603C60.016 211.732 59.5639 211.829 59.1118 211.893C38.8638 215.769 24.7192 188.061 31.8884 170.913C39.2513 153.281 53.8802 160.644 60.4681 161.031C63.3745 160.837 67.6373 159.384 72.1907 159.19C78.2941 158.9 84.9789 160.837 89.1448 170.913C96.4108 188.545 81.3943 217.125 60.4681 211.603Z" fill="#ED1C24"/>
<path d="M60.4648 211.603C68.0215 211.021 78.0971 202.108 81.7785 190.192C85.46 178.179 80.1316 162.775 72.1874 159.19C78.2909 158.9 84.9756 160.837 89.1415 170.913C96.4075 188.545 81.391 217.125 60.4648 211.603Z" fill="#D81322"/>
<path d="M50.5895 162.775C47.1987 159.772 36.4449 165.778 34.7979 173.432C33.1509 181.182 37.0262 194.746 40.3201 195.327C43.614 195.811 46.0361 187.77 44.7766 178.954C43.4203 170.138 54.6585 166.457 50.5895 162.775Z" fill="#F74350"/>
<path d="M61.0114 165.662C59.4366 165.662 58.1602 164.434 58.1602 162.918C58.1602 156.569 60.1024 150.445 63.7771 145.209C64.6582 143.953 66.4301 143.622 67.7354 144.47C69.0403 145.318 69.3837 147.023 68.5029 148.279C65.4669 152.605 63.8619 157.668 63.8619 162.918C63.8626 164.433 62.5862 165.662 61.0114 165.662Z" fill="#683520"/>
<path d="M144.468 259.603C144.016 259.732 143.564 259.829 143.112 259.893C122.864 263.769 108.719 236.061 115.888 218.913C123.251 201.281 137.88 208.644 144.468 209.031C147.375 208.837 151.637 207.384 156.191 207.19C162.294 206.9 168.979 208.837 173.145 218.913C180.411 236.545 165.394 265.125 144.468 259.603Z" fill="#ED1C24"/>
<path d="M144.465 259.603C152.022 259.021 162.097 250.108 165.779 238.192C169.46 226.179 164.132 210.775 156.187 207.19C162.291 206.9 168.976 208.837 173.141 218.913C180.408 236.545 165.391 265.125 144.465 259.603Z" fill="#D81322"/>
<path d="M134.589 210.775C131.199 207.772 120.445 213.778 118.798 221.432C117.151 229.182 121.026 242.746 124.32 243.327C127.614 243.811 130.036 235.77 128.777 226.954C127.42 218.138 138.658 214.457 134.589 210.775Z" fill="#F74350"/>
<path d="M145.011 213.662C143.437 213.662 142.16 212.434 142.16 210.918C142.16 204.569 144.102 198.445 147.777 193.209C148.658 191.953 150.43 191.622 151.735 192.47C153.04 193.318 153.384 195.023 152.503 196.279C149.467 200.605 147.862 205.668 147.862 210.918C147.863 212.433 146.586 213.662 145.011 213.662Z" fill="#683520"/>
<path d="M201.468 259.603C201.016 259.732 200.564 259.829 200.112 259.893C179.864 263.769 165.719 236.061 172.888 218.913C180.251 201.281 194.88 208.644 201.468 209.031C204.375 208.837 208.637 207.384 213.191 207.19C219.294 206.9 225.979 208.837 230.145 218.913C237.411 236.545 222.394 265.125 201.468 259.603Z" fill="#ED1C24"/>
<path d="M201.465 259.603C209.022 259.021 219.097 250.108 222.779 238.192C226.46 226.179 221.132 210.775 213.187 207.19C219.291 206.9 225.976 208.837 230.141 218.913C237.408 236.545 222.391 265.125 201.465 259.603Z" fill="#D81322"/>
<path d="M191.589 210.775C188.199 207.772 177.445 213.778 175.798 221.432C174.151 229.182 178.026 242.746 181.32 243.327C184.614 243.811 187.036 235.77 185.777 226.954C184.42 218.138 195.658 214.457 191.589 210.775Z" fill="#F74350"/>
<path d="M202.011 213.662C200.437 213.662 199.16 212.434 199.16 210.918C199.16 204.569 201.102 198.445 204.777 193.209C205.658 191.953 207.43 191.622 208.735 192.47C210.04 193.318 210.384 195.023 209.503 196.279C206.467 200.605 204.862 205.668 204.862 210.918C204.863 212.433 203.586 213.662 202.011 213.662Z" fill="#683520"/>
<path d="M256.468 259.603C256.016 259.732 255.564 259.829 255.112 259.893C234.864 263.769 220.719 236.061 227.888 218.913C235.251 201.281 249.88 208.644 256.468 209.031C259.375 208.837 263.637 207.384 268.191 207.19C274.294 206.9 280.979 208.837 285.145 218.913C292.411 236.545 277.394 265.125 256.468 259.603Z" fill="#ED1C24"/>
<path d="M256.465 259.603C264.022 259.021 274.097 250.108 277.779 238.192C281.46 226.179 276.132 210.775 268.187 207.19C274.291 206.9 280.976 208.837 285.141 218.913C292.408 236.545 277.391 265.125 256.465 259.603Z" fill="#D81322"/>
<path d="M246.589 210.775C243.199 207.772 232.445 213.778 230.798 221.432C229.151 229.182 233.026 242.746 236.32 243.327C239.614 243.811 242.036 235.77 240.777 226.954C239.42 218.138 250.658 214.457 246.589 210.775Z" fill="#F74350"/>
<path d="M257.011 213.662C255.437 213.662 254.16 212.434 254.16 210.918C254.16 204.569 256.102 198.445 259.777 193.209C260.658 191.953 262.43 191.622 263.735 192.47C265.04 193.318 265.384 195.023 264.503 196.279C261.467 200.605 259.862 205.668 259.862 210.918C259.863 212.433 258.586 213.662 257.011 213.662Z" fill="#683520"/>
<path d="M87.4681 259.603C87.016 259.732 86.5639 259.829 86.1118 259.893C65.8638 263.769 51.7192 236.061 58.8884 218.913C66.2513 201.281 80.8802 208.644 87.4681 209.031C90.3745 208.837 94.6373 207.384 99.1907 207.19C105.294 206.9 111.979 208.837 116.145 218.913C123.411 236.545 108.394 265.125 87.4681 259.603Z" fill="#ED1C24"/>
<path d="M87.4648 259.603C95.0215 259.021 105.097 250.108 108.779 238.192C112.46 226.179 107.132 210.775 99.1874 207.19C105.291 206.9 111.976 208.837 116.141 218.913C123.408 236.545 108.391 265.125 87.4648 259.603Z" fill="#D81322"/>
<path d="M77.5895 210.775C74.1987 207.772 63.4449 213.778 61.7979 221.432C60.1509 229.182 64.0262 242.746 67.3201 243.327C70.614 243.811 73.0361 235.77 71.7766 226.954C70.4203 218.138 81.6585 214.457 77.5895 210.775Z" fill="#F74350"/>
<path d="M88.0114 213.662C86.4366 213.662 85.1602 212.434 85.1602 210.918C85.1602 204.569 87.1024 198.445 90.7771 193.209C91.6582 191.953 93.4301 191.622 94.7354 192.47C96.0403 193.318 96.3837 195.023 95.5029 196.279C92.4669 200.605 90.8619 205.668 90.8619 210.918C90.8626 212.433 89.5862 213.662 88.0114 213.662Z" fill="#683520"/>
<path d="M30.4681 259.603C30.016 259.732 29.5639 259.829 29.1118 259.893C8.86379 263.769 -5.2808 236.061 1.88836 218.913C9.25128 201.281 23.8802 208.644 30.4681 209.031C33.3745 208.837 37.6373 207.384 42.1907 207.19C48.2941 206.9 54.9789 208.837 59.1448 218.913C66.4108 236.545 51.3943 265.125 30.4681 259.603Z" fill="#ED1C24"/>
<path d="M30.4648 259.603C38.0215 259.021 48.0971 250.108 51.7785 238.192C55.46 226.179 50.1316 210.775 42.1874 207.19C48.2909 206.9 54.9756 208.837 59.1415 218.913C66.4075 236.545 51.391 265.125 30.4648 259.603Z" fill="#D81322"/>
<path d="M20.5895 210.775C17.1987 207.772 6.44487 213.778 4.79791 221.432C3.15094 229.182 7.02617 242.746 10.3201 243.327C13.614 243.811 16.0361 235.77 14.7766 226.954C13.4203 218.138 24.6585 214.457 20.5895 210.775Z" fill="#F74350"/>
<path d="M31.0114 213.662C29.4366 213.662 28.1602 212.434 28.1602 210.918C28.1602 204.569 30.1024 198.445 33.7771 193.209C34.6582 191.953 36.4301 191.622 37.7354 192.47C39.0403 193.318 39.3837 195.023 38.5029 196.279C35.4669 200.605 33.8619 205.668 33.8619 210.918C33.8626 212.433 32.5862 213.662 31.0114 213.662Z" fill="#683520"/>
<g clip-path="url(#clip0_3497_44664)">
<path d="M115.943 286.966L118.115 432.384L67.342 444.795L48.4219 274.556L115.943 286.966Z" fill="#FCD197"/>
<path d="M226.162 286.966L219.658 432.384L168.886 444.795L158.641 274.556L226.162 286.966Z" fill="#FCD197"/>
<path d="M281.278 286.966L270.437 432.384L245.05 444.795L219.664 432.384L226.168 286.966L253.722 274.556L281.278 286.966Z" fill="#FAB352"/>
<path d="M171.056 286.966L168.89 432.384L143.504 444.795L118.117 432.384L115.945 286.966L143.501 274.556L171.056 286.966Z" fill="#FAB352"/>
<path d="M60.8367 286.966L67.3464 432.384L41.9603 444.795L16.5737 432.384L5.72656 286.966L33.2819 274.556L60.8367 286.966Z" fill="#FAB352"/>
<path d="M281.277 249.734H5.72656V286.967H281.277V249.734Z" fill="#F58E42"/>
<path d="M270.438 432.384H16.5742V451H270.438V432.384Z" fill="#F58E42"/>
</g>
<defs>
<clipPath id="clip0_3497_44664">
<rect width="287" height="201" fill="white" transform="translate(0 250)"/>
</clipPath>
</defs>
</svg>
