<svg width="25" height="38" viewBox="0 0 25 38" fill="none" xmlns="http://www.w3.org/2000/svg">
<path d="M5.05396 1.7633C5.55342 4.22562 7.24167 8.54742 9.9989 6.13603C12.7561 3.72464 7.85112 2.21613 5.05396 1.7633Z" fill="#2AA0CD"/>
<path d="M10.0017 5.8664L5.41016 1.98788C7.84844 2.35323 11.9225 3.70608 10.0017 5.8664Z" fill="#50B9E0"/>
<path d="M8.90234 3.30719C9.37008 3.55138 10.2583 4.14089 10.0692 4.54543C9.88005 4.94997 9.21249 3.8885 8.90234 3.30719Z" fill="#C2E5F5"/>
<path d="M3.83521 10.0183C4.33467 12.4806 6.02292 16.8024 8.78015 14.391C11.5374 11.9796 6.63237 10.4711 3.83521 10.0183Z" fill="#2AA0CD"/>
<path d="M8.78295 14.1214L4.19141 10.2428C6.62969 10.6082 10.7038 11.961 8.78295 14.1214Z" fill="#50B9E0"/>
<path d="M7.67969 11.5622C8.14742 11.8064 9.03561 12.3959 8.8465 12.8004C8.65739 13.205 7.98983 12.1435 7.67969 11.5622Z" fill="#C2E5F5"/>
<path d="M13.6204 8.79526C14.1198 11.2576 15.8081 15.5794 18.5653 13.168C21.3225 10.7566 16.4175 9.2481 13.6204 8.79526Z" fill="#2AA0CD"/>
<path d="M18.5681 12.8984L13.9766 9.01985C16.4149 9.38519 20.4889 10.738 18.5681 12.8984Z" fill="#50B9E0"/>
<path d="M17.4648 10.3392C17.9326 10.5834 18.8208 11.1729 18.6317 11.5774C18.4426 11.982 17.775 10.9205 17.4648 10.3392Z" fill="#C2E5F5"/>
<path d="M16.0622 17.0683C15.7103 19.556 15.8577 24.1935 19.2621 22.8418C22.6665 21.4902 18.5473 18.4296 16.0622 17.0683Z" fill="#2AA0CD"/>
<path d="M19.3561 22.5888L16.3242 17.3992C18.5003 18.5582 21.8883 21.1944 19.3561 22.5888Z" fill="#50B9E0"/>
<path d="M19.1719 19.809C19.5311 20.1954 20.1713 21.0478 19.858 21.3659C19.5446 21.6841 19.27 20.4605 19.1719 19.809Z" fill="#C2E5F5"/>
<path d="M6.81218 19.5168C6.4603 22.0045 6.60766 26.6421 10.0121 25.2904C13.4165 23.9387 9.29733 20.8782 6.81218 19.5168Z" fill="#2AA0CD"/>
<path d="M10.1061 25.0375L7.07422 19.8478C9.25035 21.0068 12.6383 23.643 10.1061 25.0375Z" fill="#50B9E0"/>
<path d="M9.92188 22.2576C10.2811 22.644 10.9213 23.4964 10.608 23.8145C10.2946 24.1326 10.02 22.9091 9.92188 22.2576Z" fill="#C2E5F5"/>
<path d="M15.9844 27.7719C15.6298 30.2594 15.7897 34.898 19.2662 33.5529C22.7426 32.2079 18.5268 29.1385 15.9844 27.7719Z" fill="#2AA0CD"/>
<path d="M19.3628 33.3001L16.2539 28.1034C18.4801 29.2669 21.9478 31.9105 19.3628 33.3001Z" fill="#50B9E0"/>
<path d="M19.168 30.5194C19.5359 30.9066 20.1919 31.7604 19.8722 32.078C19.5526 32.3955 19.2695 31.1712 19.168 30.5194Z" fill="#C2E5F5"/>
</svg>
