<svg width="21" height="19" viewBox="0 0 21 19" fill="none" xmlns="http://www.w3.org/2000/svg">
<path d="M10.4397 18.6734C10.293 18.7223 10.1382 18.7631 9.97519 18.7957C3.10584 20.0913 -1.71003 10.6796 0.73458 4.83697C3.22808 -1.15231 8.21508 1.34119 10.4397 1.46342C11.4175 1.41452 12.8843 0.925603 14.4244 0.852265C16.5023 0.778927 18.7513 1.41452 20.1692 4.83697C22.6627 10.8263 17.5535 20.5558 10.4397 18.6734Z" fill="#ED1C24"/>
<path d="M10.4375 18.6734C13.0043 18.4778 16.4268 15.4465 17.6735 11.3885C18.9203 7.33042 17.1113 2.09897 14.4222 0.852217C16.5001 0.778879 18.7492 1.41447 20.167 4.83692C22.6605 10.8262 17.5513 20.5557 10.4375 18.6734Z" fill="#D81322"/>
<path d="M7.09095 2.09901C5.94199 1.07227 2.27507 3.10129 1.73726 5.71702C1.175 8.33275 2.47065 12.9531 3.59517 13.1242C4.71969 13.3197 5.5264 10.5818 5.08637 7.57492C4.64634 4.5925 8.45993 3.32131 7.09095 2.09901Z" fill="#F74350"/>
</svg>
