<svg width="22" height="23" viewBox="0 0 22 23" fill="none" xmlns="http://www.w3.org/2000/svg">
<path d="M14.0435 6.50431C14.0435 6.50431 18.9461 3.42205 20.9604 6.96544C22.9748 10.5331 16.7375 13.3241 16.7375 13.3241C16.7375 13.3241 19.8198 16.2851 19.1645 19.246C18.5092 22.2069 13.6552 20.7264 12.199 18.1053C12.199 18.1053 10.2089 23.1049 6.64125 22.2312C3.07358 21.3332 6.47136 14.5376 6.47136 14.5376C6.47136 14.5376 1.22907 15.5327 0.670869 11.2612C0.112663 7.01398 7.46642 8.10612 7.46642 8.10612C7.46642 8.10612 5.11225 2.35418 9.55363 1.06788C13.995 -0.242692 14.0435 6.50431 14.0435 6.50431Z" fill="#D8EEEC"/>
<path d="M12.782 9.05254C12.782 9.05254 15.1848 7.52354 16.1798 9.27097C17.1749 11.0427 14.1169 12.426 14.1169 12.426C14.1169 12.426 15.6216 13.8822 15.3061 15.3384C14.9906 16.7946 12.5879 16.0665 11.8598 14.7802C11.8598 14.7802 10.889 17.2557 9.11729 16.8189C7.34559 16.382 9.02022 13.0085 9.02022 13.0085C9.02022 13.0085 6.44762 13.4939 6.18065 11.4067C5.88941 9.29524 9.52988 9.85344 9.52988 9.85344C9.52988 9.85344 8.36493 7.01388 10.5492 6.35859C12.7578 5.72758 12.782 9.05254 12.782 9.05254Z" fill="#F3DEDA"/>
<path d="M11.9331 12.8387C11.205 13.0571 10.4284 12.6446 10.2342 11.9165C10.0158 11.1884 10.4284 10.436 11.1565 10.2176C11.8846 9.99915 12.6369 10.4117 12.8554 11.1398C13.0738 11.8679 12.637 12.6446 11.9331 12.8387Z" fill="#F2FCA7"/>
</svg>
